<?xml version="1.0" encoding="utf-8"?>
<!-- Generator: Adobe Illustrator 19.0.0, SVG Export Plug-In . SVG Version: 6.00 Build 0)  -->
<svg version="1.1" id="Layer_1" xmlns="http://www.w3.org/2000/svg" xmlns:xlink="http://www.w3.org/1999/xlink" x="0px" y="0px"
	 viewBox="0 0 2037 1822" style="enable-background:new 0 0 2037 1822;" xml:space="preserve">
<style type="text/css">
	.st0{fill:#EFCCAB;}
	.st1{fill:#A7B3CD;}
	.st2{fill:#B5B2B1;}
	.st3{fill:#B6B3B2;}
	.st4{fill:#91422C;}
	.st5{fill:#9C9089;}
	.st6{fill:#24346B;}
	.st7{fill:#4E4B49;}
	.st8{fill:#4F4B49;}
	.st9{fill:#504C4A;}
	.st10{fill:#25356D;}
	.st11{fill:#B5B3B1;}
	.st12{fill:#4F4B4A;}
	.st13{fill:#25356C;}
	.st14{fill:#524D4C;}
	.st15{fill:#B6B4B2;}
	.st16{fill:#54504E;}
	.st17{fill:#273663;}
	.st18{fill:#182B4D;}
	.st19{fill:#172A4D;}
	.st20{fill:#24356C;}
	.st21{fill:#24346C;}
	.st22{fill:#263870;}
	.st23{fill:#26376E;}
	.st24{fill:#1B2E52;}
	.st25{fill:#25386F;}
	.st26{fill:#2B3C6B;}
	.st27{fill:#293C73;}
	.st28{fill:#45527F;}
	.st29{fill:#524D4B;}
	.st30{fill:#14274B;}
	.st31{fill:#B2AFAD;}
	.st32{fill:#172B4D;}
	.st33{fill:#182A4D;}
	.st34{fill:#1F3050;}
	.st35{fill:#9E979D;}
</style>
<path id="XMLID_393_" class="st0" d="M754,1173.1c1.7-1.4,0.7-3,0.3-4.6c-13.9-52.8-28.5-105.4-41.3-158.4
	c-4.7-19.5-16.1-34.8-25.9-51.2c-18.9-31.9-38.7-63.2-58-94.8c-20.3-33.2-40.7-66.3-61-99.5c-9-14.7-18.1-29.5-27.1-44.2
	c0.3-0.6,0.8-1.2,1.5-1.1c7.2,0.6,14.6-0.6,21.8,1.1c2.6,1.2,3.9,3.6,5.2,5.8c14.3,24,28.5,48.1,43.8,71.5
	c11.2,17.1,21.6,34.8,35.7,49.8c3.2,3.4,6.2,7.2,11.6,10c-7.4-13.1-13.9-25.5-20.4-37.8c-16.3-30.9-35.1-60.4-52.1-90.9
	c-1-1.9-2.3-3.7-1.7-6.1c1-1.8,2.7-1.7,4.3-1.5c3.6,0.5,4.5-1.2,4.8-4.5c0.9-11.2,1.7-22.4,2.2-33.5c0.4-2.8,2.7-3.4,4.9-4.3
	c5.4-2.1,10.5-4.8,14.6-9.7c-1.7-0.4-2.7,0.4-3.8,0.9c-1.2,0.5-2.3,1.2-3.5,1.8c-2.8,1.2-5.3,3.4-8.7,3c-0.8-0.2-1.5-0.6-1.9-1.4
	c-0.7-9.8,0-19.4,1.4-29.1c0.3-1.3,0.6-2.6,0.2-3.9c-0.1-0.5-0.2-1.1-0.2-1.6c-0.1-2.8-0.3-5.7,0.3-8.5c0.8-6.4,0.8-12.9,1.2-19.4
	c1.7-28.2,3.9-56.4,5.5-84.6c0.4-7.9-0.3-16,2-23.8c1.1-2.8,2.5-1.8,4-0.3c2.6,2.8,4.8,5.9,7,8.9c3.6,4.7,7.1,9.5,10.7,14.2
	c2.3,3,4.3,6.3,8.6,6.8c0.8,3,0.8,6,0.4,8.9c-1.6,13.9-0.7,27.8-0.5,41.7c0,1.5,0.3,3-0.4,4.4c-0.1,0.1-0.3,0.2-0.4,0.3
	c0.1,0,0.3,0.1,0.6,0.1c0.9-14.5-0.2-29.1,2.2-43.4c1-2.7,2.4-1.6,3.6-0.2c2.5,2.9,4.9,5.9,7.2,9c29.4,39.1,59.1,78.1,88.7,117.1
	c14.9,19.6,29.8,39.2,44.6,58.9c1.9,2.5,4.3,4.1,7.1,5.4c16.4,7.4,32.7,15,49,22.4c22.6,10.2,45,20.8,67.7,30.9
	c0.9,0.4,1.6,1.2,3.1,0.8c-1.1-4.5-2.6-8.8-3.6-13.3c-0.4-1.7-1.7-3.4,0.1-5.1c1.4-0.7,2.9-0.8,4.4-0.5c6.5,1.3,12.9,0.9,19.7-1.5
	c-9-1.7-17.2-4.5-25.4-7.4c-1.6-0.6-3.8-0.4-4.2-2.8c1.5-3.6-0.6-6.8-1.5-9.9c-9.1-31.1-18.2-62.1-27.7-93c-1.5-5-1.1-8.5,3-11.6
	c1.2-0.9,2.1-2.2,3.2-3.1c4.1-3.5,7.3-7.3,6.1-13.2c-0.1-0.7,0.5-1.5,0.7-2.3c2.1,1.8,1.4,4.3,1.6,6.5c1.5,22.4,3.3,44.8,8.7,66.7
	c4.1,16.7,9.2,33.1,17.7,48.2c1.3,2.3,2.5,4.7,4.3,6.7c0.8,0.9,1.7,2.4,3.3,1.5c1.2-0.7,0.8-2.1,0.5-3.2c-1-4.4-2.2-8.7-3.5-13
	c-6.2-20.6-11.3-41.5-18.6-61.7c-1.7-4.7-3.3-9.4-5.4-14c-2-4.5-2.3-8.9-1.7-13.6c1-7.1,1.8-14.2,1.9-21.4c0-2.2,0.2-4.4,2.4-5.7
	c11.5-11.3,23.4-22.3,34.3-34.1c6-6.5,13-9.4,21.4-10.9c20.9-3.7,41.6-8,62.4-12.2c2.7-0.6,4.5-0.4,6.8,1.4
	c22,17.9,44.2,35.7,66.3,53.5c8.4,6.8,16.8,13.5,25.3,20.2c1,0.8,2,2.5,3.8,1.1c1.9-0.2,2.6,1.3,3.4,2.5
	c10,15.2,21.1,29.5,32.9,43.3c6.5,7.5,14.2,13.6,23.7,16.9c3.3,1.2,6.7,1.5,10.4,0.9c-1.8-2.3-6.2-2.8-5.4-6
	c0.8-3.3,4.8-3.1,7.7-3.5c13-1.9,24-7.3,33-17c8.1-8.8,17-16.8,27.1-24.8c-4.5-0.3-7.9,1-11.4,2.4c-11,4.5-18.9,12.9-26.9,21.1
	c-5.1,5.2-11.3,8.7-17.9,11.6c-4.3,1.8-8.7,3.4-12.3,6.5c-1.7,1.5-3.7,2-5.3,0.2c-5.5-6.3-12-11.5-16.7-18.5
	c-0.5-0.7-0.8-1.5-0.5-2.3c11.4-5.5,22.8-11,34.1-16.6c15.2-7.5,30.4-15.1,45.6-22.8c2.5-1.3,4.7-1.6,7.6-0.8
	c29.3,8.1,58.6,16.1,87.8,24.1c5.8,1.6,11.5,3.4,17.3,4.6c5.7,1.1,9.9,4.1,13.9,8.1c25.1,25.3,50.4,50.4,75.5,75.7
	c2.4,2.4,5,3.7,8.1,4.4c20.5,4.8,41,9.7,61.5,14.5c0.3,0.1,0.5,0.4,0.7,0.6c-1.2,1.5-3,1.4-4.6,1.3c-10.8-0.8-21.5,0.2-32.3,0.8
	c-5.6,0.3-11.3-1-16.7-2.5c-13-3.5-25.7-8.3-38.3-13c-3.4-1.3-5.8-3.5-8.1-6.3c-20.2-25.8-41.6-50.4-69.6-68.1
	c-16.2-10.2-33.4-18.1-52.7-20.4c-9.6-1.1-19.2-0.9-28.9,2.5c1.8,2.9,4.5,2.8,6.7,3.3c14,3.1,27.9,6.7,41,12.5
	c17.9,8,33.9,19.1,49.2,31.2c15.6,12.4,30.2,26.3,47.8,36.1c0.7,0.4,1.3,1,1.7,1.8c0.1,0.6,0,1-0.5,1.3c-3.1,1.2-5.6-1.7-8.9-1.5
	c1.5,2.2,3.3,3.6,5.2,4.7c16.3,9.7,32.8,19,50.8,25.4c16.1,5.8,32.5,4.8,48.5-0.3c5.2-1.6,9.5-1.7,14.2,0.9
	c13.1,7.3,27.5,11.9,41.2,17.9c11,4.8,21.2,11.2,30.7,18.5c1.2,0.9,3.1,1.6,2.4,3.8c-1.1,1-0.6,2.1-0.2,3.2
	c9.1,26.4,17.8,53,27.3,79.2c12.2,33.8,22.2,68.1,30.1,103.2c5.5,24.8,11.6,49.4,17.4,74.1c12.4,52.6,24.9,105.3,37.3,157.9
	c8.6,36.3,17.1,72.7,25.6,109c6.1,26,12.3,52,18.4,78c2.1,9,1.3,18.2,2,27.3c1.3,16.4,1.4,32.9,2.4,49.3c1.4,23.7,3,47.4,4,71.1
	c0.6,15.1,1.7,30.2,2.9,45.2c0.6,7,3.5,13.5,5.4,20.2c8.2,29.1,16.5,58.1,25,87.1c1.1,3.8-0.5,4.9-3.7,5.1
	c-15.2,1.1-30.5,2-45.7,3.2c-15.2,1.2-30.4,2.6-45.6,3.8c-14.4,1.1-28.8,2.1-43.2,3.2c-16.2,1.2-32.4,2.6-48.6,3.8
	c-9.9,0.8-19.9,1.4-29.8,2.2c-19.7,1.6-39.3,3.2-59,4.8c-10.4,0.8-20.9,1.4-31.3,2.2c-16,1.2-32.1,2.6-48.1,3.9
	c-9.8,0.8-19.5,1.4-29.3,2.1c-16.5,1.3-33.1,2.6-49.6,3.9c-9.6,0.7-19.2,1.4-28.8,2.2c-15.7,1.2-31.4,2.6-47.1,3.8
	c-10.9,0.8-21.9,1.4-32.8,2.2c-15.4,1.2-30.7,2.6-46.1,3.8c-9.3,0.8-18.5,1.4-27.8,2.1c-17.2,1.3-34.4,2.6-51.6,3.9
	c-4.6,0.4-9.3,0.4-13.9,1.1c-6.7,1.1-11.4-2.8-16.5-5.8c-39.7-24.1-79.3-48.2-118.9-72.3c-38.2-23.3-76.3-46.7-114.5-70
	c-31.4-19.1-62.8-38.3-94.2-57.2c-3.5-2.1-5.4-5.4-8.1-8.1c-10.6-10.6-21.2-21.2-31.7-31.9c-28.7-29.3-57.5-58.4-85.8-88
	c-14.1-14.7-28.8-28.7-42.6-43.6c-14.4-15.5-29.9-29.9-44.4-45.4c-14.2-15.2-29.3-29.6-43.7-44.6c-27.2-28.4-54.9-56.3-82.3-84.4
	c-12.9-13.3-26.2-26.1-38.8-39.7c-13.4-14.4-27.6-28-41.2-42.1c-5.2-5.4-10.2-10.9-15.5-16.2c-2-2-2.2-3.7-0.9-6.1
	c13.9-26.3,27.7-52.7,41.6-79.1c4.4-8.4,8.9-16.8,13.1-25.3c1.5-3,2.8-3.3,5.7-2c9.3,4.4,18.6,8.8,28.5,11.9
	c-0.5,2.6-2.9,2.4-4.6,2.9c-5.8,1.7-11.4,3.8-16.4,7.2c-3.9,2.7-7.1,5.9-9.3,10.2c-4,7.5-10.9,13-15,20.5
	c-9.9,17.9-20.8,35.3-24.5,55.9c-0.9,5.1-0.8,5.5,2.8,9.5c-0.7-7.8,3.3-14.4,6.3-21.1c8.2-18.6,18.4-36.1,28.7-53.7
	c3.5-5.9,8.8-9.6,15-11.8c19.8-7.3,40.3-9.8,61.3-8.9c1.5,0.1,3.5-0.2,3.9,2.1c-5.6,0-11.3,0-16.9,0c-0.1,0.3-0.3,0.7-0.4,1
	c5.3,2.4,10.5,4.8,15.8,7.1c25.3,11,50.8,21.5,75.9,32.9c17.3,7.9,32.8,18.8,49.2,28.5c38.9,23,77.7,46.1,116.6,69.2
	c18.3,10.9,36.5,21.8,54.8,32.7c0.7,0.4,1.4,0.9,2.2,1.2c1,0.5,2.1,1.7,3.2,1c1.4-0.9,0.5-2.4,0.2-3.6c-3-11.2-5.9-22.5-8.9-33.7
	c-0.3-1.2-0.2-3.3-2.7-2.4C753.4,1174.2,753.4,1173.6,754,1173.1z"/>
<path id="XMLID_392_" class="st1" d="M540.1,719.9c-21.6-0.3-43.2-1.3-64.7-2.7c-8.3-0.5-16.6-0.5-24.9-1
	c-19.8-1.1-39.6-1.4-59.3-2.4c-16.1-0.8-32.2-1.5-48.3-2c-22.6-0.7-45.2-1.7-67.7-3c-21.7-1.3-43.5-2-65.2-3
	c-24.2-1.2-48.5-2.3-72.8-3.1c-6.5-0.2-12.9-0.8-19.4-0.8c-2.9,0-3.8-1.1-3.6-3.9c1-17.9,1.9-35.8,2.8-53.8
	c0.4-8.6,0.4-17.3,0.9-25.9c0.9-14.1,0.7-28.3,1.4-42.4c1.2-23.4,2.1-46.8,3-70.3c0.5-14.1,1.3-28.2,1.9-42.3
	c1.1-24.6,2.3-49.2,3.1-73.8c0.5-15.4,1.7-30.9,1.8-46.3c0.1-8.2,2-14.9,8.6-21c14.4-13.2,27.8-27.4,41.6-41.2
	c1.2-1.2,2.5-2.2,3.7-3.3c1.2,1.6,0.4,3.2-0.2,4.7c-2.1,5.8-4.5,11.5-6.8,17.2c-0.2,0.6-0.4,1.5-0.9,1.7c-6.3,3.3-6,9.9-7.4,15.3
	c-9.4,35.1-16.1,70.8-20.2,107c-3.2,27.8-5.1,55.7-6.2,83.6c-1.3,29.8-1.9,59.6-1.7,89.4c0.1,10.8,1.7,21.6,1.2,27.2
	c1.1-18.6,3.6-42.3,4-66.2c0.4-23.8,1.7-47.6,3-71.3c2.2-38.1,6.5-76,12.4-113.7c2.4-15.1,4.9-30.3,7.4-45.4c0.5-2.8,1-5.6,2.4-8.1
	c11.3-19.5,19.7-40.4,30.3-60.3c1.1-2.1,1.6-4.9,4.7-5.4c1.2,1.3,1.7-0.2,2.3-0.7c2.2-2.1,4.6-4,6.3-6.4
	c7.1-10.1,16.8-12.2,28.8-12.1c98.1,0.5,196.2,0.3,294.4,0.2c5.1,0,8.9,1.3,12.8,4.9c15.8,14.2,32.2,27.9,48.2,41.8
	c7.9,6.8,15.8,13.7,23.6,20.8c3.4,3.1,1.6,7.3,1.4,10.9c-0.7,13.4-1.8,26.8-2.7,40.2c-1.3,20.2-2.7,40.4-3.9,60.6
	c-0.5,8.6-0.8,17.3-1.2,25.9c-2.2,0.4-2.9-1.3-3.8-2.6c-9.2-12.3-19.8-23.4-29.9-34.9c-7.4-8.4-16.7-14.7-25.4-21.7
	c-1.9-1.5-4.3-2.7-4.9-5.4c0.1-9.7,1.1-19.3,2.2-28.8c2.5-23.3,0.1-69.8-5.4-92.2c1,11.7,1.6,24.3,2.1,36.9
	c0.6,14.5,0,28.9-0.2,43.4c-0.2,18.5-2.4,36.9-3.6,55.3c-0.4,6.3-0.4,12.7-1.9,18.9c-0.2,0.5-0.5,1-0.9,1.4c-0.5,0.1-1.1,0.3-1.4,0
	c-11.6-10.8-26.6-16-40-23.8c-4.9-2.8-9.8-5.7-14.9-8.1c-1.5-0.7-3.1-1.4-3.4-3.4c1.1-3.4-0.8-7.2,1.6-10.4c1.7-1.2,3.6-1.8,5.6-1.8
	c9.8,0.3,19.6-1.6,29.3,0.3c1.4,0.3,3.3,1.1,4-0.6c0.6-1.6-1.2-2.5-2.2-3.6c-7-6.9-15.7-7.2-24.7-6.1c-9.3,1.1-18.3,3.2-26.8,7.2
	c-4.2-0.4-7.1,0.9-7.6,5.6c-0.7,1.6-1.8,2.8-3.4,3.5c-5.3,2.3-10.8,4.1-15.8,7.1c-1.1,0.7-2.5,0.9-3.7-0.1
	c-1.7-3.6-1.2-7.5-1.4-11.3c-0.1-3.2,2.6-3.7,5.3-4.1c2.3-0.3,6.3,0.4,6.1-2.6c-0.2-2.9-4.1-1.6-6.4-1.6c-5.2,0.1-6.4-1.4-4.4-6.1
	c0.6-1.3,1.9-2.4,0.8-4.1c-1.4,0.3-2,1.6-1.9,2.6c0.1,5.8-2.2,11.3-0.8,17.2c0.9,3.7,0.5,7.6,0,11.4c-1.1,3.5-4.1,5.2-6.8,7.1
	c-3,1.2-5.5,3.7-9.1,2.8c-3.3-1.2-3.4,1.9-4.3,3.5c-1.1,2.2-2,3.1-4.9,2.6c-10.8-1.8-12.6-3.4-14.3-14.8c0-0.3,0-0.6-0.2-0.9
	c0.1,0.3,0.1,0.7,0,1c-0.2,0.8-0.6,1.2-1.4,0.8c-0.6-0.3-0.9-0.9-1-0.5c0.3,5.4,3.6,10.3,8.4,14.3c1.3,1,2.9,1.7,3.5,3.5
	c0.7,2.6,0.5,5.3,0.5,8c0,28.1,0.2,56.3-0.1,84.4c-0.1,7.6,1.7,14,5.9,20.1c2.4,3.6,4.9,7.2,6.8,11.1c0.9,1.7,2.2,3.4,1.1,5.6
	c-2,1.6-4.4,1.3-6.7,1.3c-24.3,0-48.7,0.6-73-0.2c-16.6-0.5-33.3-1.3-49.9-2.4c-10.3-0.7-20.6-1.2-30.9-1.4c-8-0.2-15.9-1-23.6-1.9
	c9.2,3.8,19.1,5.7,29.3,6.7c20.4,2,40.8,3.2,61.3,4.4c14.3,0.8,28.6,0.4,43,0.8c11.5,0.3,22.9,1.4,34.4,1c6.8-0.2,13.6-1.9,20.4-0.6
	c3.2,0.8,4.7,3.5,6.3,6c20.4,33.4,40.8,66.7,61.3,100.1c10.8,17.6,21.6,35.2,32.3,52.8c0.9,1.5,4.3,3.6,0.4,5.8
	c-26.7-1.9-53.1-6.8-80-8.1c-15.5-0.7-30.9-1.2-46.4-2c-34.8-1.9-69.6-1.9-104.3-3.2c-24.4-0.9-48.6,1.1-72.9,0.7
	c-7.8-0.1-15.9,0.7-23.8,1.3c-19.8,1.6-34.8-7.9-46.7-23c-0.8-1-1.3-2.3-2.2-3.3c-0.2-0.3-0.5-0.4-1.3-0.5c-0.7,3.2,0.1,6.2,1.8,8.8
	c7.7,12.2,18.7,19.6,33.1,21.8c2.7,0.4,5.3-0.2,7.9-0.9c14-3.5,28.3-3.8,42.6-2.8c9,0.6,18,0.6,26.9,0.9c13.3,0.4,26.6,1,39.9,1.4
	c26.1,0.8,52.2,1.3,78.3,2.7c9.8,0.5,19.6,0.8,29.4,1.2c17.5,0.6,34.9,1.7,52.3,2.7c8.5,0.5,16.9,1.3,25.4,1.3
	c13.6-0.1,27.2,1.1,40.9,1.1c1.3-0.2,2.3,0.4,2.9,1.4c3.7,5.6,7.4,11.3,10.6,17.3C540.6,718,540.8,719,540.1,719.9z"/>
<path id="XMLID_391_" class="st2" d="M1809.2,211.9c-1.7,2,0.4,2.9,1.3,4c12.9,16.9,24.4,34.7,34.3,53.6c7.2,13.9,13,28.3,13.2,44.3
	c0,1.1-0.1,2.4,1,3.2c1.5,1.5,0.7,3.1,0.3,4.7c-8.1,30.6-23.4,57.1-45.9,79.3c-6.1,6-11.7,12.6-18.2,16.5c3.7-2.8,9.1-5,14-8.1
	c14.7-9.5,25.9-22.2,35.6-36.5c1.3-1.9,2-4.8,5.2-4.8c-0.9,8-5.5,14.5-9.2,21.3c-9.1,16.6-19.4,32.5-30.2,48
	c-6.5,9.2-14.8,16.2-26.8,17c-2.2,0.1-3.7,2.1-5.5,3.2c-5.7,3.6-10.6,8.4-17.2,10.7c-0.3-2.3,1.5-3.2,2.9-4.3
	c2.8-2.1,5.3-4.5,8.1-6.8c-15.5,7.2-31.1,14.2-47.9,18c-17,3.9-34.1,4.9-51.6,3.9c-17.4-1-33.2-6.7-49.2-12.4
	c-3.8-1.4-7.4-3-11.4-3.6c-1.4-0.2-3.4-0.8-4,0.9c-0.5,1.7,1.4,2.4,2.6,3.2c2.5,1.7,5.4,2.7,8.1,3.9c11.3,4.8,22.6,9.9,34.9,12
	c25.4,4.5,50.7,4.2,75.8-2.5c2.2-0.6,4.4-2,6.7-0.3c-11.3,6.8-23.7,10.9-36.5,13.9c-5.9,1.4-12.1,3.1-18.1,2.8
	c-12.1-0.6-24,1.2-36,2.3c-10.5,1-19.9-2.8-28.9-7.7c-4.4-2.4-8.7-4.9-12.9-7.5c-2.4-1.5-3.8-1.4-5.6,1.1
	c-9.5,13.6-19.9,26.6-30.6,39.3c-1.8,2.1-2.6,4.2-1.8,7.2c2.6,10.9-0.6,20.2-9.6,26.9c-9,6.8-19.1,7.3-29.1,2.4
	c-7.1-3.5-12.9-8.6-16.9-15.6c1.9-1.5,3.5-0.1,5.1,0.6c6.7,2.9,13.4,5.7,21,7.9c-3.2-5-7-8.5-11.5-11.5c-10.6-7-22.4-11.6-33.8-17
	c-4.5-2.2-8.6-5.1-12.8-7.7c-1.1-0.7-2.2-1.6-2.2-3.1c1.2-0.3,2-0.8,2.3-2.2c1.7-9.4,7.2-16.9,13.3-23.5c18.7-20.2,35.1-42.3,52-64
	c6.9-8.8,15.9-13.5,27.5-10.7c0.8,0.2,1.9,0.5,2.4,0.2c5.4-3.4,12.1-3.1,17.6-5.9c0.6-0.7,1.3-1.2,2.1-1.1
	c6.6,0.5,13.5-0.3,19.7,2.9c0.7,0.4-0.8,1.4,0.5,1.8c8.6,2.8,17.2,5.9,26.4,6.4c2.6,0.1,4.9-0.3,7.6-2.4c-5.7-0.4-10.9,0.1-16-0.3
	c-1.5-0.1-4.8,1-3.6-2.9c3.7-1.2,7.4-0.2,11.1,0c1.8,0.1,3.5,0.6,5.2-0.3c1.6-0.4,3.2-0.1,4.8,0.3c6.5,1.7,12.6,0.4,18.2-3.3
	c1.3-1.2,2.9-0.6,4.3-0.5c13.7,1.6,26.2-2.4,37.6-9.3c9.5-5.7,18.6-12.2,26.6-20.1c6.4-6.3,11.3-13.5,14.5-21.9
	c0.5-1.4,0.9-2.9,2.4-3.7c3.5-1.6,4.6-5.1,6.3-8.1c6.2-10.7,10.2-22.4,13.1-34.3c0.2-0.8,0.3-1.6,0.6-2.4c6.3-16.8,3-32.3-6.4-47
	c-1.5-2.3-3.1-4.3-5.2-5.9c-5.5-4.1-11.1-7.8-16.9-11.4c-8.6-5.3-18.1-5.8-27.8-5.1c0,0,0.4,0.2,0.5,0.3c0.8,0.4,0.7,1,0.2,1.6
	c-1.4,1-3.1,1.1-4.8,1c-10.9-0.6-21.5,1-31.8,4.5c0.5,0.6,2,0.6,2,2c-5.8-0.7-10.4,2.3-15.4,4.4c-15.9,6.6-27.3,20.1-42.5,27.6
	c-2.7,1.3-4.6,3.8-6.4,6.3c-11.2,15-37.3,23.1-53.2,5.1c-5.5-6.2-12.3-11.2-18.5-16.7c-6.3-5.6-6.2-12.4-4.1-19.7
	c2.5-0.4,3.9,1.5,5.7,2.6c10.2,6.9,19.9,14.5,30.5,20.9c3,1.8,6.1,3.5,9.4,4.7c3.7,1.3,6.3,3.3,4.6,8.4c21.5-21.6,46.5-36.5,75-44.5
	c-4.3,0.7-9.2,0-14.2,0.9c-5.1,1-10.1,2.1-14.9,4c-13,5.2-24.6,12.5-34.4,22.6c-2.2,2.3-4.4,4.5-6.8,6.6c-2.1,1.9-4.2,1.8-6.1-0.3
	c-6-6.6-13.4-11.4-20.7-16.4c-6.9-4.7-13.7-9.4-20.9-13.7c-1.4-0.8-3-1.5-3.6-3.3c0.1-0.5,0.3-1,0.7-1.4c3.4-2.4,6.6-5,9.8-7.7
	c2.2-1.8,4.5-3.6,7.3-4.1c5.9-1.1,10.2-4.7,14.3-8.7c3.7-3.6,7.8-6.7,12.3-9.4c19.6-11.8,40.2-21.2,62.4-27.3
	c10.4-2.8,20.6-5.1,31.3-5.3c3.7-0.1,7.2-1.1,10.8-2c5.4-1.4,10.9-1.5,16.3,0c5.7,1.6,11.4,2.3,17.3,2c17-1,33.5,1.4,49.3,8.2
	c2.6,1.1,5.3,2.1,8.1,2.2c8.8,3.2,15.9,9,23,14.9C1809.2,210.4,1809.3,211.2,1809.2,211.9z"/>
<path id="XMLID_390_" class="st3" d="M701.9,198.8c0.8-16.9,2.6-33.7,5.9-50.4c2.4-12.4,9.4-22.5,16.9-32.5
	c13.9-18.6,31.5-32.7,51.7-43.9C791,64,806.5,59.1,823,57c7.4-0.9,14.7-2.6,22.3-2c2.3,0.2,4.8,0,6.9,1c10.3,4.8,21.6,5,32.2,8.1
	c15.5,4.4,30.6,10.1,41,23.2c10.3,13,16,28.3,19.7,44.3c2.7,11.9,2.1,23.7-1,35.5c-0.8,3.2-1.1,6.5-1.1,9.9c0,22.3-0.9,44.5-7.9,66
	c-7.6,23.3-18.8,44.3-37.9,60.4c-0.2,0.2-0.4,0.5-0.6,0.7c0.4,0.2,0.7,0.5,1.1,0.7c0.9,2.5-1.3,2.7-2.6,3.4
	c-9.6,4.9-19.7,7.9-30.3,9.5c-4.2-0.2-8.4-3.3-12.7,0c-1.5,1.1-2.9,2.1-2.6,4.3c-1.6,2.4-0.2,3.8,1.6,5.2c-2.7,0.8-3.1,2.8-3,5.4
	c0.2,8.6-0.6,17.1-2,25.5c-2.9-4.5-1.3-9.7-2.3-14.5c-0.8-4-1.1-8.2-1.8-12.4c-1.3,7.5-2.6,14.9-2.5,22.6c0.2,18.3,0.1,36.5-1,54.8
	c-0.1,1,0.1,2.1-0.3,3c-1.4,3,1.4,0.5,1.6,1.3c-0.7,2.5-1.1,5.2-3.2,7.1c-1.6,1.4-0.4,2.2,0.3,3.1c-1.1,1.1-2.4,0.9-3.7,0.8
	c-7.5-0.9-14.9,0.3-22.3,1.3c-9.9,1.4-19.5,4-29.6,3.4c-0.3,0-0.7,0-1,0.1c-5.8,0.7-6.3,1.6-3.2,6.2c-3.2,0.1-6.3,0.2-9.5,0.1
	c-6.8,0-10.5-3.5-10.6-10.4c-0.2-10.2-0.4-20.3-0.1-30.5c0.5-17.8-3.6-35.4-3-53.2c0.4-10.3,0.5-20.6,1-30.9
	c0.6-10.9,9.8-20.9,21-23c2.2-0.4,4.2-0.8,5.9-2.4c4.9-4.8,10.8-7.6,17.3-9.4c15.4-4.2,28-13.6,41-22.1c11.7-7.6,21.9-17.3,34.2-24
	c1.7-0.9,3.7-1.5,5.5-2.2c1.4,2.5-0.7,3.6-2.1,4.9c-6.4,5.8-12.2,12.1-18.7,17.9c-2.9,2.6-6.4,4.2-9.9,5.6c-1.8,0.8-3.8,1.2-5.5,2.3
	c-2.8,1.9-2.9,4.2-0.4,6.5c3.2,2.8,3.2,3.4-0.8,4.8c-6.1,2.2-12.3,4-18.4,6.2c-8.3,3-16.9,5.2-23.7,11.3c-0.5,0.4-1.1,0.9-1.7,1
	c-5.1,0.4-9,3.7-13.4,5.5c-6,2.5-11.7,6.3-18.5,7.2c-2.8,0.4-4.5,2.1-4.7,5c-1.8,7.4,0.7,14.6,1.5,21.8c2.8,24.9,2.4,49.8-0.7,74.7
	c-1,7.7-2.6,15.5-0.9,22.7c5.3-24.8,9.8-50.4,8.4-76.6c0.1-3.2,0.1-6.3,2.6-8.9c0.6-0.6,0.9-1.6,0.6-2.3c-2.2-6.2,0-13-2.3-19.2
	c-1.3-3.5-0.1-5.8,3.7-7.3c18.1-7.1,35.9-14.8,53.3-23.7c13-6.7,25-14.8,37.6-22c1-0.6,2.3-1.4,2.2-2.5c-0.3-4.6,3.2-5.9,6.2-8
	c8-5.6,13.7-13.1,18.4-21.9c4.6-8.5,6.1-17.9,9.7-26.6c1.3-3.2,1.2-6.1-0.6-9.5c-2.1-3.9-2.2-8.8-0.1-12.5c2.3-4,1.9-7.3,0.2-10.8
	c-1.7-3.4-2.4-6.9-2.2-10.6c0.3-5-1.7-9.8-1.2-14.9c0-0.5-0.1-1.1-0.4-1.4c-7-8.1-8.4-19.6-15.9-27.4c-0.5-0.5,0.2-0.1-0.3-0.4
	c-8.2-3.8-11.9-12.9-20.3-16.6c-9.5-4.2-19.2-5.3-29.2-3c-8.7,2-16.8,6-23.8,11.1c-4.7,3.4-9.6,7.1-13.3,12.3
	c-3.3,4.6-7.7,9-12.6,12.5c-17.4,12.2-29.5,28-33.8,49.2c-0.6,3.1-1,6.3-1.8,9.3c-0.8,3-1.3,6.4-5,7.5c-11.9,0.6-23.8,0.3-35.6,0.3
	C704.7,200.5,703,200.3,701.9,198.8z"/>
<path id="XMLID_389_" class="st2" d="M1077.2,314.2c2.5-1.3,2.9-2.8,2-5.8c-2.3-7.8-1.8-15.8-0.2-23.7c4.9-25.3,12.4-49.6,27-71.2
	c4-6,8.8-11.2,16-13.7c4.8-1.7,9.4-1.4,14,0.1c-0.1,2.3,2,2.4,3.4,3c7.7,3.6,16,4.4,24.3,4.7c3.5,0.1,7,0.3,10.3,1.5
	c7.3,2.6,14.4,1.5,21.5-0.9c14.9-5.1,26.3-14.8,35.9-26.8c6.8-8.5,12.5-17.7,14.4-28.7c1.3-7.6,1.4-15.3-1.3-22.7
	c-1.1-3.1-2.6-6.2-7.2-6.4c0.4,3.1,2.4,5.2,3.1,7.8c2.7,10.5,1.2,20.7-3.2,30.2c-7.7,16.5-19.5,29.6-35.5,38.8
	c-8.6,5-17.8,6.6-27.4,5.7c-7.8-0.7-15.6-0.7-23.3-2.2c-2.2-0.5-5.2,0.2-6.3-2.9c12.8,1.6,23.8-4.5,35.5-7.9
	c4.6-1.3,9.1-3.2,13.7-4.3c7.2-1.8,12.9-6,18.2-10.8c3-2.7,5.7-5.7,9.3-7.4c7.2-3.5,8.8-10,9.3-17c0.4-6,0.5-12,0-17.9
	c-0.6-6.5-5.4-10.6-9.8-14.8c2-3.4,5.3-2,8.1-2.2c2-0.2,4,0,7.1,0.8c-5.6-3.3-10.8-4.6-15.8-4.1c-19.9,2.1-37.4,9.9-51.7,24.2
	c-0.3,0.4-0.7,0.7-0.9,1.5c3.4,0.4,5.6-3.5,9-2.4c-3.4,5.9-7.9,10.6-13.5,14.4c-9,6.1-24.8,5.8-34.1-5.3
	c-10.7-12.8-10.4-25.1-5.2-40.2c5.5-15.7,17-24.4,29-33.6c0.2-0.2,0.6-0.1,1-0.1c0.5,2.7-1.7,3.7-3.3,5c-4.3,3.5-7.7,7.8-10.1,12.8
	c12.3-11.8,27.3-20.2,39.5-32c6.5-6.3,13.3-8.8,22.2-8.4c6.3,0.3,12.6,0.6,18.9,0.3c1.5,0,3.5-0.3,4,2c-1,0.1-2,0.3-3,0.4
	c7.9,5.9,17.5,6.9,26.4,9.6c17.5,5.3,29,16.2,33.9,33.9c1.1,4.2,2.3,8.3,3.4,12.5c2.2,8.1,2,16.3-1.6,23.9c-3.4,7.3-5,14.8-6.4,22.7
	c-3.7,20.9-14.6,37.4-32.9,48.7c-5.7,3.5-10,8.7-15.4,12.6c-8.6,6.1-17.7,10.9-28.1,13.4c-9.8,2.4-19.3,6.2-28.9,9.1
	c-6.7,2-13.5,3.5-20.5,3.3c-3.1-0.1-4.4,1.1-4.9,4.1c-3.5,19-9.4,37.4-16.5,55.3c-2.8,7.2-6.7,14.1-12.2,19.8
	c-4.3,4.4-10.7,3.8-15.5-0.2c-3.2-2.6-6.6-7.2-11.8-3.1C1085.5,320.3,1081,318.2,1077.2,314.2z"/>
<path id="XMLID_388_" class="st2" d="M206.7,895.8c-0.3,1.8-0.1,3.8-0.9,5.4c-6.3,12.1-2.2,25.7-5.8,38.1c-0.4,1.3,0.3,2.9,0.6,4.4
	c2.9,13.7-6.5,25.3-20.5,25.5c-8.8,0.1-17.6-0.5-26.4-1.2c-8.3-0.6-13.9-7.4-14.6-17.4c-0.2-2.2-0.1-4.3-0.2-6.5
	c3.1-0.9,5.4,1.2,7.9,2.2c6.9,2.5,13.9,4.6,22.5,2.6c-3.8-1.4-6.8-1.9-9.7-2.8c-7.4-2.3-14.9-4.5-21.8-8.2c1.4-0.9,2.5-2.1,3-3.8
	c2.5-8.7,4-17.4,2.5-26.5c-1.4-8.8,4.2-19,12.8-22.6c3.1-1.3,4.6-3.1,5.8-6c8.4-19.2,22.9-32.2,41.5-41.6
	c10.6-5.3,21.3-6.9,32.7-6.5c7.1,0.2,14.3-0.1,21.4,0.2c2.2,0.1,4.2-0.9,6.3-1c3.2,1.2,5.7,3.2,8,5.7c11.4,12.1,22.8,24.2,30.5,39.3
	c9.4,18.3,12.1,37.3,10,57.6c-3.5,32.7-22.6,66.3-43.5,87.2c18.7-16.9,34.6-39.1,42.4-66.6c2-6.9,3.3-13.9,4.3-21
	c0.2-1.6-0.5-3.9,2.2-4.2c2.6,21.7-4,41-14,60c-7,13.4-17.8,22.9-27.4,33.9c-2.5,2.9-4.7,6-6.9,9.1c-2.2,3.1,0.6,6.1,0.2,9.1
	c-2.7-0.1-3.3-2.5-4.3-4.3c-1.9-3.5-3.7-7-6-10.9c-1.9,2.4-1.1,4.6-0.5,6.7c1.4,5.5,4.3,10.4,6,15.8c3.2,10.3,6.5,20.6,10.5,30.6
	c0.9,2.2,1.8,4.2,2.9,6.3c2.3,4.8,4.5,9.2,4.6,15.2c0.1,7,2.2,14.9,10.1,18.5c-5.7,2.2-9.7,6-11.9,11.8c-2.6,6.9-9.5,8.6-15,3.8
	c-1-0.9-2-1.7-3.4-2c1.7-3.4,5.3-3.7,8.2-4.9c2.1-0.9,4.4-1.8,5.6-2c-3.6,1.9-8.9,1.5-13.8,2.9c-1.3,0.4-2.6,0.4-3.7-0.7
	c-8.9-8-12.8-18.7-16.4-29.7c-4.9-14.6-12.2-28.5-14.8-43.8c-1.3-7.6-2.3-15-5.5-22.3c-3.8-8.9-0.9-17.8,6.4-24.5
	c3.9-3.6,7.6-7.4,10.5-11.8c4.7-6.9,10.6-12.7,16.9-18.2c3.4-3,4.9-7.5,7.1-11.3c7.9-14.2,8.7-28.8,4.2-44.5
	c-3.7-13-9.9-24.5-17.2-35.6c-2.9-4.4-6.4-7-11.9-6.4c-5.8,0.7-12-1.6-17.6,2.4c1.3,0.6,2.3,1,3.4,1.5c-2.3,2.1-4.9,3.8-7,6.1
	c-0.7-0.6-1.3-1.3-2-1.9c-0.6-1.2,0.5-1.7,0.9-2.4c-5.9,1.1-11.4,4.5-16,10c-8.6,10.3-13.9,22.3-16.7,35.3c-1.3,6.1-2.7,12.3-1.5,20
	c2.5-4,3-7.4,3.8-10.7c3.3-14.1,8.2-27.5,16.4-39.5C203.2,898,204.1,895.9,206.7,895.8z"/>
<path id="XMLID_387_" class="st4" d="M1688,1009c4.1,14.6,6.1,29.6,8.9,44.5c7.9,41.8,19,82.7,31.5,123.3c0.2,0.6,0.3,1.3,1.8,1.4
	c-0.1-6.4,0.7-12.8,2.2-19.3c2.4,4.6,2,9.6,3,14.2c4.7,22,11.4,43.4,16.2,65.4c16,73.6,25.3,148,29.7,223.1
	c1.3,23,1.2,45.9-2.6,68.8c-0.2,1.3-0.4,2.6-0.7,3.9c-0.7,3.2-1.6,6.4-2.1,9.4c-6.2-80-18.7-159.3-29.1-238.8
	c-4.3-32.8-11.8-65.2-14.9-98.2c-1.4-15.1-7.3-28.2-12.7-41.7c-17.8-45-31.9-91-41.5-138.5c-8.6-42.6-17.7-85-30.1-126.8
	c-2.9-9.8-6.8-19.1-10.8-28.4c-0.1-4.9-0.7-9.6-4.2-13.5c-0.6-0.6-1-1.6-1.7-1.8c-8.5-1.8-10.2-9.8-14.2-15.5
	c-6.1-8.8-13.4-16.5-20.9-24c-14.6-14.7-32.9-22.9-51.7-30.2c-6.2-2.4-11.9-5.9-18.4-7.8c-1.4-0.4-3.1-1.4-2.7-3.1
	c0.4-1.8,2.4-1.6,3.8-1.4c4,0.7,8,0.6,12,0.7c1.2,0,2.4,0,3.4,0.5c9.6,5.1,20.3,7.2,30.3,11.3c4.6,1.9,8.9,4.5,12.9,7.6
	c0.8,0.6,1.4,1.5,2.3,1.9c11,5.2,17.3,15,23.8,24.6c6.2,9.2,13.1,17.9,19.7,26.8c5.3,7,9.8,14.6,14.6,21.9
	c5.6,8.6,8.7,18.1,11.9,27.6c5.4,16.2,10.8,32.5,14,49.3c1.9,9.9,5.7,19.4,7.4,29.4c1.4,8.5,2,17.2,4.8,25.4
	C1685,1004,1686,1006.7,1688,1009z"/>
<path id="XMLID_386_" class="st4" d="M552.1,376.7c22.8,15.3,40.5,35.7,57.5,56.8c1.8,2.2,3.6,4.3,5.3,6.5
	c8.4,11.4,16.7,22.8,25.1,34.3c3.2,1.6,4.7,4.4,5.6,7.7c10.4,15.3,20.8,30.6,31.2,45.8c17.2,25.2,33.7,50.8,51.8,75.3
	c22.1,29.9,44.2,59.6,69.3,87c7.1,7.8,16.3,12.7,24.2,19.5c15.7,13.7,32.7,25.7,51.2,35.4c9.9,5.2,20,9.8,30.7,13.1
	c10.7,4.2,21.7,7.4,34.1,10c-10.2,5.1-19.6,3.8-29,2.8c-2.5,1.2-4.9,0.1-7.3-0.5c-25.7-6.1-47.7-19.3-68-35.6
	c-11.7-9.4-22.3-20-30.5-32.8c-3-4.7-8.4-7-12.6-10.6c-15.4-13.3-29.4-28-43-43c-15.9-17.6-30.5-36.1-44.7-55.1
	c-15.9-21.2-30.2-43.5-45.3-65.3c-4.5-6.4-8.7-13-13.3-19.3c-1.6-2.5-3.2-5.1-5.2-7.4c-8.3-12.5-17.2-24.7-26-36.8
	c-17.8-24.9-37.2-48.5-56.8-72.1c-2.2-2.7-4.3-5.5-6.2-8.4c-0.9-1.6-1.7-3.3-1.7-5.2C548.5,376.5,549.2,374.7,552.1,376.7z"/>
<path id="XMLID_385_" class="st4" d="M1688,1009c-2.6-0.2-4-2-4.5-4.1c-1.7-7.6-3.6-15.1-4.8-22.8c-1.4-8.5-2.8-17-5.5-25.4
	c-3.7-11.3-4.9-23.3-8.6-34.6c-3.3-10-5.4-20.4-10.1-30c-1.1-2.3-1.9-4.6-1.5-7.2c0.5-3.6-3-4.9-4.3-7.6
	c-4.9-10.1-11.4-19.3-17.7-28.5c-2.7-4-5.6-8.1-9.1-11.6c-6.1-6.1-9.4-14.1-14.7-20.7c-2.1-2.7-3.3-6.1-6.5-7.9
	c-0.4-0.2-0.9-0.6-1.1-1c-4.4-8.3-13.4-10.9-20.4-15.8c-9.3-6.5-21-7.7-30.9-12.6c-8.3-4.1-16.4-2-24.9-4.9c1.6,3.7,4.6,2.9,6.7,4
	c12.5,6.8,26.5,10.2,39,17.4c6.1,3.5,12,7.6,18.2,10.8c4.8,2.5,7.7,7.2,11.6,10.7c8.6,7.8,15.7,16.9,21.9,26.6
	c1.3,2.1,3.2,3.8,3.4,6.5c0.2,1.5,1.4,2,2.8,2.3c8.1,2,12.7,10.6,9.9,18.3c-16-17.6-26.9-39.4-45.1-55.3c-9.7-8.9-21-15.2-32.7-20.7
	c-15.5-7.2-32.1-12-46.9-20.9c-1.6-0.9-2.9,0-4.3,0.5c-21.9,8-43.4,7.5-64.5-2.7c-13.6-6.6-27.3-13.1-40.1-21.3
	c-3.1-2-6.1-4.3-7.9-8.7c4.7,1.5,8.6,2.7,12.5,3.9c0.6,0.5,1.4,0.5,2.1,0.7c-0.7-0.3-1.5-0.2-2.2-0.6c-20.9-12-38.4-28.6-57.2-43.3
	c-24.3-19.1-51.4-31.8-81.8-37.7c-0.8-0.2-1.6-0.3-2.4-0.5c-2.6-0.7-6.8-0.6-6.7-3.8c0.2-3.1,4.4-3,7-3.4
	c22.3-3.9,42.9,1.6,62.7,11.6c27,13.7,48.7,33.5,67.9,56.5c6.2,7.4,12.9,14.4,18.1,22.5c1,1.6,2.8,2.4,4.5,3
	c12.8,4.7,25.6,9.6,38.8,13.2c7.4,2,15,2.9,22.7,2.2c10.5-0.8,20.9-1.3,31.4-0.4c16.4,6.2,34.2,6.8,50.5,13.5
	c23.4,9.6,42.2,24.2,54.7,46.6c3.8,6.8,9.3,12.5,14.2,18.6c15.5,19.4,25.6,41.4,32.5,65.2c9.2,31.9,16.4,64.2,23,96.6
	C1688.1,1007.3,1688,1008.2,1688,1009z"/>
<path id="XMLID_384_" class="st5" d="M526.9,697.8c-13.5-22.1-27.1-44.2-40.6-66.2c-18.3-29.9-36.6-59.7-54.9-89.6
	c-1.4-2.3-2.9-4.4-4.4-6.6c0.2-0.6,0.6-1,1.2-1.2c7.4-0.9,14.8-1,22.2-1.5c3.8-0.3,7.6-0.4,11.4-0.6c3,0.3,4,2.8,5,5
	c21.8,47.1,47.4,92.1,73,137.2c8.1,14.3,15.9,28.9,24.3,43.1c0.8,1.4,2.1,2.7,1,4.6c-4.5-1.4-9.2-0.6-13.8-0.9
	c-3.4-0.2-6.9-0.4-10.3-0.6c-0.3-0.2-0.5-0.3-0.8-0.4c-4.1-7-8.1-13.9-12.2-20.9c0.3-0.6,1.1-0.4,1.6-0.7c-0.5-0.2-0.9,0.2-1.4,0.1
	C527.6,698.4,527.2,698.3,526.9,697.8z"/>
<path id="XMLID_383_" class="st2" d="M761,304.1c0.4-2.8,2.1-4.7,4.8-5c4.8-0.4,8.6-4.2,12.7-4.7c7.1-0.9,10.7-9.2,18.5-7.5
	c0.7,0.1,1.7-0.3,2.2-0.8c11.2-10,26-11.9,39.3-16.9c2.1-0.8,4.2-1.8,6.9-2.6c-3.2-0.8-5.5-1.9-5.6-5.4c-0.1-3.6,2.4-4.8,4.8-5.4
	c10.7-2.8,18-10.5,25-18.2c3.3-3.6,8.2-5.7,10.2-10.5c0.6,0,1.2-0.1,1.8-0.1c1.8,2.2-0.1,3.8-1,5.4c-5.6,10.3-14,18.1-24.2,24.8
	c18.2-5.5,28.9-17.8,35.3-34.4c1.4-3.6,2.5-7.2,3.9-10.8c5.3-13.7,5.2-27.6,1.4-41.6c-2.3-8.5-4.3-17-6.8-25.5
	c-4.7-15.9-13.6-28.6-27.8-37c-15.6-9.1-31-6.4-46,2.1c-9.4,5.4-16.6,13.3-24.1,21.4c2.7-0.9,4.4-2.6,6.3-4
	c9.8-7.3,19.9-13.9,31.7-17.6c12-3.8,23-1.4,33.1,5.9c7.5,5.5,13.5,12.4,18.4,20.2c4.2,6.6,7.4,13.8,10.8,20.8
	c0.7,1.5,1.4,3.1,1.4,4.8c0,9.3,1.8,18.6,1.1,27.9c-0.1,1.8,0.5,4.1-2.2,4.9c0.4-17-6.7-32.3-10.9-48.3c-1.6-6.1-6-9.7-12.2-12.6
	c-18.3-8.6-35.5-3.9-53,2.3c-18.3,6.6-35,15.9-49.1,29.4c-1.2-2,0.3-3.5,1.1-5c4.1-7.7,9.4-14.4,14-20.7c-7.7,5.2-14.8,12.1-20,21
	c-6.8,11.5-10.6,24-12.7,37c-0.3,1.6-0.2,3.7-2.3,4c-2,0.3-4.4,0.5-5.2-2.4c3.1-3.6,3.3-8.3,3.9-12.6c1-6.6,2.4-13.1,5.6-19
	c4.5-8.2,8.7-16.5,16-23c5.2-4.6,11.6-8.3,15.9-13.3c3.7-4.3,10.3-6.5,11.3-13c0-0.1,0.2-0.3,0.3-0.4c6.2-2.8,9.2-9.8,16.2-12
	c4.3-1.3,7.9-4.4,12.2-6.1c16.4-6.7,31.4-5,45.5,5.6c2.4,1.8,5.8,3,5.4,7.1c0,0.4,0.7,1.2,1.2,1.4c9.7,3,12.6,11.4,15.8,19.7
	c1,2.6,2,5.6,4,7.3c3.4,2.9,3.2,6.4,4,10.1c1.5,7.2-0.8,14.7,3.3,21.7c1.9,3.2,3.4,7.4-0.8,11.7c-2.1,2.1-2.1,8.3,0.2,10.8
	c3.4,3.8,2.3,7.3,0.9,10.6c-1.6,3.8-2.3,7.8-3.5,11.7c-3.9,12.8-10.3,24.3-19.6,33.9c-1.4,1.4-3.2,2.4-4.9,3.4
	c-3.1,1.9-6.3,2.9-6.3,8.3c0,3.3-5.8,5.1-9.1,7.2c-6.6,4-13.8,6.8-19.8,12.2c-4.3,3.9-11,4.2-16.2,7.3c-15.3,9.4-32.4,15-49,21.8
	c-3.2,1.3-4.1,2.6-2.8,5.3c2.9,6.5-0.2,13.9,2.8,20.4c0.3,0.7-0.1,2.5-0.7,2.7c-3.4,1.6-2.5,4.6-2.8,7.3c-3-1.2-2.2-3.9-2.1-6
	c0.2-12-4-23.2-6.6-34.6C762.8,305.5,762.3,304.5,761,304.1z"/>
<path id="XMLID_382_" class="st4" d="M465.1,1040.8c-11.4-2.3-22.8-1-34.2,0.5c-9.4,1.3-18.6,3.3-27.7,6.3
	c-7.8,2.6-14.2,6.7-18.4,14.3c-11.1,20.1-23.2,39.6-31.4,61.2c-2.9,7.6-3,7.6-1.1,14.6c-6.7-3.8-7.7-5.8-6.5-13.2
	c1.5-9.3,4.5-18.1,8.7-26.4c7.9-15.9,16.1-31.5,27.5-45.5c6.8-8.4,12.4-17.1,23.2-20.6c3.9-1.3,7.8-2.6,11.8-3.9
	c16.3-4,32.7-6.1,49.5-4.4c22.7,2.4,43.6,10.7,63.9,20.5c32.8,15.8,63.7,34.8,93.6,55.5c9.5,6.6,19.2,12.9,28.4,20.3
	c-6.6-2.3-13.2-4.3-19.6-6.9c-29.6-11.8-57.5-27.1-85.8-41.7c-22.7-11.6-45.5-22.9-70.6-28.8
	C472.7,1041.7,468.9,1040.8,465.1,1040.8z"/>
<path id="XMLID_381_" class="st4" d="M899.1,622c-1.2,11.1-2.5,22.1-3.6,33.2c-0.3,3.2,2,5.9,3.1,8.8c10.1,25.6,16.7,52.3,24.3,78.6
	c0.9,3,1.7,6.1,2.6,9.1c0.7,2.2,1.1,4.4-1.4,5.6c-2.5,1.2-3.7-1.1-4.8-2.6c-7.2-10.3-12.2-21.8-16.2-33.6
	c-6.8-19.9-10.7-40.4-12.7-61.4c-1.1-11.6-2.5-23.1-2.7-34.7c1.5-25.3,11.7-46.4,32.1-61.7c13.8-10.4,29.2-17.7,46.7-20.2
	c5.3-0.8,9.4-4.7,14.4-6.5c25.5-9.4,49.3-6.4,71.7,9c23.2,16,39.5,37.8,52.4,62.5c1.8,3.4,3.3,6.9,4.9,10.3c0.4,0.9,0.5,1.9,0.8,3.5
	c-12.1-13-22.4-26.7-34.6-38.8c-8.4-8.3-17.5-15.9-26.9-23.1c-22.2-17.3-47.4-20.7-73.8-14.6c-30.3,7.1-53.5,24.8-69.2,51.8
	C901.8,604.8,899.5,613.2,899.1,622z"/>
<path id="XMLID_380_" class="st2" d="M828.9,525.9c-0.9,3.4-4.1,5.2-5.9,8c-3.7,3.9-8.3,2.3-12.6,1.7c-2.7-0.4-5.8-2.5-7.5,1.1
	c-1.5,3.3,0.8,5.6,3.3,7.5c0.9,0.7,2,1.3,1.7,2.7c-2.5,1.2-3.7,3.1-3.3,6.2c-0.4-3.1-0.9-4.6-4.4-2.8c-12.2,5.9-24.3,3.6-33.6-6.2
	c-7.8-8.2-13.9-17.2-13.9-29.3c0-7.9,3-14.1,9.2-18.8c1.5,1.4,0.9,3,0.7,4.7c-1.6,13.6,6.6,25.4,20.4,28.7c-3.1-3.2-5.9-6-8.5-9.1
	c-10.6-12.6-8.2-24.9,1.6-36.4c2.3-2.7,4.4-5.6,8.6-6.2c2.3-0.3,3.8-3.5,6.1-4.9c3.8-2.3,7.2-5.5,12.1-5.2c1.5,1.3,3.4,1.9,5.3,2.6
	c16.5,5.6,26.2,18.5,27.1,36c0.1,1.3,0.2,2.6,0.5,3.9c-1.6,9.2-6.6,13.8-17.3,16.1C821.9,525.9,825.4,523.3,828.9,525.9z"/>
<path id="XMLID_379_" class="st2" d="M1427.2,630.2c1-6.2,2.6-12.2,1.1-18.6c-1.6-7,0.4-13.5,4.8-19.2
	c12.2-15.5,35.7-20.5,53.2-11.8c2.9,1.4,4.4,4.6,7.7,5.3c2.2,0,1.6,1.7,1.6,2.8c-1,16.3-8,29.8-20,40.5c-6.1,5.4-13.6,7.7-21.4,5.1
	c13.7,8.6,27.6-0.3,36-9.2c6.3-6.7,11.3-14.4,13.8-23.4c0.3-1,0.6-1.9,1.9-2c-0.2,7.9,2.8,15.7,0.3,23.7c-2.5,8-6.4,15.2-13.8,19.5
	c-5.5,3.2-10.4,7.5-16.4,10c-1.8,0.1-3.7,0.1-5.4-0.7c-8-3.8-16.7-5.7-24.7-9.2c-4-1.8-7.8-4-10.2-7.7
	C1433.5,632.2,1430.8,630.6,1427.2,630.2z"/>
<path id="XMLID_378_" class="st6" d="M204.9,253.9c-5.4,9-9.6,18.6-14.2,27.9c-6.7,13.4-12.8,27-20.2,40c-2.6,4.5-2.4,10.6-3.2,16
	c-4.4,29.3-9.5,58.4-12.7,87.9c-1.9,17.5-3.5,35.1-4.6,52.7c-2.4,36.7-2.8,73.5-4.9,110.2c-0.8,13.1-2.1,26.2-3.3,39.3
	c-0.2,1.8-0.7,3.5-1.1,5.5c-1.7-1.8-1.6-3.9-1.7-5.8c-1.5-45.8-0.9-91.6,1.3-137.4c1.3-27.6,3.9-55.1,7.7-82.5
	c4.9-35.1,11.8-69.8,21.8-103.9c0.4-1.4,1-2.8,1.5-4.2c1.9-0.1,1.1,1.9,2.4,2.7c3.2-8.2,6.3-16.3,9.4-24.4
	c6.2-11.3,11.3-23.2,18.9-33.8c4.8-6.6,10.1-12.7,16-18.4c1.6-1.6,3.4-3.1,6.9-4.3C216.3,232.1,210.3,242.8,204.9,253.9z"/>
<path id="XMLID_377_" class="st7" d="M1809.2,211.9c-7.1-6.2-14.6-11.8-23.3-15.7c-7.9-2.3-14.8-6.7-22.4-9.6
	c-27.9-10.4-56.6-16.3-86.5-14.1c-20.8,1.5-40.6,7-59.4,16.2c-26.2,12.7-48.8,30.4-70,49.9c-1.1,1-2.3,1.9-3.4,2.9
	c-1,0.8-1.7,2-3.2,1.7c-3.2-2.6-2.7-5.7-1.1-9c2.4-4.9,6.5-8.5,10.4-12c20.1-17.8,41.4-34,66.1-45.1c40.7-18.3,82.4-20.7,125.3-8.9
	c21.6,6,42,14.3,60.3,27.6c16.1,11.8,29,25.8,36.1,44.7c0.3,0.8,0.6,1.5,0.8,2.3c0.1,0.5-0.1,1-0.1,2
	C1831,231.6,1821.5,220.4,1809.2,211.9z"/>
<path id="XMLID_376_" class="st8" d="M318,928c-2.1,11.8-4,23.5-8.3,34.8c-9.4,24.7-24,45.5-44.9,61.7c-0.3,0.3-0.7,0.4-1.3,0.4
	c7.6-8.1,14.5-16.9,20.9-25.9c15.1-21.1,24.8-44.3,27.3-70.4c2.8-29.5-7.3-54.6-26.4-76.5c-4.8-5.5-10-10.7-14.7-16.3
	c-2-2.4-4.9-3.3-6.6-5.8c0.8-0.3,3.7,0.2,0.9-1.8c-3.7-2.7-8-4-12.3-5.3c-20.2-6.1-39.8-3.8-58.9,4.6c-20.9,9.2-39.3,21.7-54.1,39.2
	c-2.2,2.6-3.4,5.3-3.6,8.9c-0.4,8.5-1.4,16.9-2.8,25.3c-2.2,12.5-3.8,25-3.3,38.9c-3-5.2-4.6-9.5-5-14.4
	c-0.8-10.6,1.3-20.9,3.2-31.2c0.5-2.8,0.7-5.1-0.7-8.2c-2-4.5-0.1-9.8,2.2-14.3c6.3-12.2,15.6-22,26-30.6
	c17.6-14.6,37.2-25.3,60.1-28.4c22.3-2.9,41.8,3.1,57.8,19.4c10.3,10.4,21.2,20.2,29,32.9C314.5,884.4,319.3,905.4,318,928z"/>
<path id="XMLID_375_" class="st9" d="M1225.1,53.9c-9.2-1.9-18.5-1.1-27.8-1c-5.2,0-9,1.6-13.2,5.2c-11.9,10.4-24.6,19.9-36.9,29.9
	c-3,2.5-5.9,5.2-9.5,8.4c1.5-8.3,6.5-13.1,11.6-17.8c1.5-1.5,3.6-2.5,4.6-4.4c3.6-2.4,7.3-4.7,10.7-7.3c3.1-2.3,6.4-3.8,8-8.4
	c1.7-4.6,7.3-6.9,12.4-8.4c16.3-4.9,32.9-4.4,49.5-1.9c19.9,3,38.5,9.4,54.2,22.4c15.6,12.9,24.8,29.4,25,50.1
	c0.2,15.1,1.2,30.3-2.1,45.3c-5.6,25.6-19.4,45.7-40.3,61.1c-28.5,20.8-60.4,29.4-96.1,26.9c11.8-1.6,23-2.6,34-4.8
	c24.8-5.1,47.4-15.2,66.7-32.2c20.7-18.3,30.7-41.5,32.6-68.5c0.8-10.4,2-20.8,0.6-31.3c-1.9-13.7-1.6-14.2-7.8-23.1
	c-5.5-8-12.1-15-20.4-20.3C1264.1,62.4,1245.1,56.7,1225.1,53.9z"/>
<path id="XMLID_374_" class="st7" d="M904.6,49.1c-5.1-1.7-10.2-3.9-15.5-5c-25-5.3-49.9-4.3-74.5,2.8c-31.9,9.2-60,24.6-81.7,50.3
	c-12.5,14.8-21.9,31.5-28.4,49.6c-5.8,16.3-11.9,32.5-14.1,49.8c-0.3,2.1-1.3,1.5-2.1,1.2c-2.2-0.9-3.2-2.6-3.6-5
	c-0.7-4.6,0.1-9,1.2-13.4c6.3-26,14.9-51.2,29.9-73.6c22.7-33.9,54.7-54.6,93.4-66.1c22.8-6.7,45.7-8.6,69-3.7
	C888.1,38.1,896.8,42.6,904.6,49.1z"/>
<path id="XMLID_373_" class="st8" d="M1753,354c-4.5,11-10,21.5-19.4,29.1c-11.4,9.1-22.7,18.4-36.8,23.4
	c-9.8,3.5-19.6,4.7-29.8,2.6c-4.4-0.4-8.1-2.3-13.3-5c17.7,1,33.3-1.5,47.5-9.5c19.9-11.1,35.9-26.1,47.9-46
	c6.9-11.4,8.2-23.2,9.6-35.4c1.5-12.7,0-25.3-4.7-37.3c-7.2-18.1-21.9-24.9-39.9-26.7c-1.7-0.2-3.3-0.2-5-0.3
	c-8.1-0.6-16.2-0.6-24.3,0c-0.9,0-1.8,0-2.7,0c-2-1.6-4.5-0.4-7.7-1.9c11.5-3.2,21.9-6.7,33.1-6.1c3.1,0.2,6.3,0.1,9.5,0.1
	c0.9-0.8,1.9-0.9,3-0.7c2,0.6,4.2,0.4,6.2,0.8c22.9,4.8,37.7,20.2,41.9,43.4c2.6,14.4,1.2,28.4-3.9,42.2c-2.3,6.4-4.2,13-6.9,19.2
	C1756.1,348.6,1755.6,351.8,1753,354z"/>
<path id="XMLID_372_" class="st6" d="M538.8,224.5c-99.1-2.3-196.8-4.6-294.5-6.9c-0.7,0-1.6-0.4-1.9-1.6c2.3-1.4,4.9-1.6,7.5-1.8
	c50.5-3.7,101.2-3.8,151.8-2.1c22,0.7,43.9,1.7,65.8,3c22.1,1.2,44,3.8,65.9,6.9C534.8,222.1,536.3,222.4,538.8,224.5z"/>
<path id="XMLID_371_" class="st7" d="M1505.9,599.9c-3.4,13-10.5,23.5-21,31.8c-4.3,3.5-9.1,6-14.7,7c-7.9,1.5-14.6-1.3-21.1-6.3
	c1.1,0,1.8-0.2,2.3,0c11.9,4.1,21.1-0.1,28.6-9.3c8.8-10.8,14.8-22.6,14-37.1c-0.7-11-8.1-15.1-17.6-17.1c-9.6-2-19.1-5-28.8-0.8
	c-0.4-1.3,2.9-3.8-1.1-3.1c-11.3,1.9-22.3,4.1-29.2,14.9c-3,4.8-4.1,9.8-3.8,15.2c0.4,7.4,1.6,14.7,4.5,22.2
	c-23-16-13.6-47.7,9.7-55.8c8.6-3,17.3-4.8,26.4-3.9c8.3,0.8,16.5,1.6,24.8,2.1c23.5,1.3,31,18.4,27.5,36.7
	C1506.4,597.6,1506.1,598.7,1505.9,599.9z"/>
<path id="XMLID_370_" class="st4" d="M1160.9,674.1c5.3,7.3,12,13.3,18.1,20c1.3,1.4,2.2,1.7,3.5,0.2c3.1-3.6,7.4-5.1,11.6-6.6
	c9.3-3.4,16.9-9.1,23.5-16.4c6.9-7.6,14.8-13.8,24.5-17.7c3.9-1.6,7.9-2.6,12.1-1.5c0.5,1.3-0.6,1.9-1.3,2.3
	c-8.1,5.1-14.9,11.8-21.2,18.8c-11.5,12.7-24.7,21.7-42.1,23.5c-1.5,0.2-2.9,0.7-4.4,1c-0.3,0.1-0.5,0.4-1,0.7
	c2.2,2.8,5.6,4,9.7,6.7c-5.3,1.1-9.1,1.5-13.1,0.4c-13.8-4.1-23.2-13.9-32-24.5c-10.6-12.8-20.1-26.4-29.7-40
	c-0.9-2.7-4.6-5.9-2.5-7.9c2.5-2.3,5.5,1.4,8,3c12.8,8.5,21.3,21.2,31.3,32.5C1157.7,670.4,1159.3,672.2,1160.9,674.1z"/>
<path id="XMLID_369_" class="st8" d="M893.1,194.1c1.7-5.2,0.4-10.5,0.6-15.8c1-23.7-10-42.2-26.6-57.7
	c-14.4-13.5-28.7-14.8-46.3-5.8c-8.2,4.2-15.9,9-23,14.9c-2.4,2.1-5.3,3.2-9,4.5c8.8-11.9,18.6-21.4,31.2-27.7
	c20.8-10.3,41.5-6.2,56.8,11.3c7.6,8.7,12.5,18.6,15.7,29.7c2.4,8.2,4.1,16.7,6.4,24.9c3.3,11.4,3.5,23.1-0.3,34.4
	c-3.8,11.5-7.3,23.2-14.8,33.1c-6.1,8.1-14,13.6-23.3,17.3c-1.9,0.7-3.8,1.1-6.7,0.6c11.6-8.7,22.6-17.2,27.7-30.8
	C887,216.5,890.9,205.6,893.1,194.1z"/>
<path id="XMLID_368_" class="st8" d="M1849.9,367.9c-8.1,11.2-15.9,22.5-26.3,31.8c-9.7,8.7-20.5,15.4-32.8,20
	c10.3-7.6,19.2-16.7,27.7-26.1c17.5-19.2,30.4-41.1,37.6-66.2c1-3.5,3-6.7,2.8-10.5c0.1-5.1,1.9-10,2.4-15.1
	c2-24.9-2.9-48.7-10.9-72.1c-1.3-3.9-3.7-7.2-5.8-10.8c5.9,4.3,9.2,10.6,12.2,16.9c20.5,43.9,17.7,86.8-5.7,128.7
	C1850.5,365.7,1850.3,366.8,1849.9,367.9z"/>
<path id="XMLID_367_" class="st7" d="M803.1,468.1c-6.3,1.9-11.8,5.2-16.5,9.9c-0.4,0.4-1.1,5.1-3,0.6c-0.3-0.6-1.1,0.3-1.5,0.7
	c-7,7-13.7,14.1-13.2,25.2c0.3,7.3,4.4,12.3,8.8,17.4c2.7,3.1,5.4,6.3,7.5,8.8c-13,1.6-25.9-14.6-23.8-30.3c0.2-1.5,0.4-3,0.6-4.4
	c5.5-14,15.5-23.6,29.1-29.9c5.2-2.4,9.9-6,15.1-8.6c13.8-7,26.2-3.1,33.7,10.5c7.5,13.6,7.9,27.9,3,42.4c-2.4,7.2-7.7,11.9-14,15.5
	c-3.9,0.3-7.8,0.6-11.7,1c8.4-3.1,15.8-7.1,17.7-16.9c0-10.4,0.5-20.9-3.8-30.7c-0.9-2-1.6-4-2.9-5.8c-4.5-6.6-10.2-8.6-18.1-6.5
	C807.8,467.5,805.7,469.5,803.1,468.1z"/>
<path id="XMLID_366_" class="st7" d="M1736,479.9c-18.7,5.3-37.6,7.8-57.1,7.2c-22.2-0.7-42.9-6.5-62.8-16c-3.1-1.5-6.3-3.1-9.3-4.8
	c-1.4-0.8-2.2-2.2-1.6-3.8c0.6-1.5,2.1-1.4,3.4-1.4c4.6,0.1,8.8,1.4,13.1,3c13.2,4.8,26.2,10.4,40.4,12.3c30.6,4,60,0.4,88.5-11.6
	c8.3-3.5,16.6-7.2,25.3-10.9c-3.7,6.5-10.2,9.3-14.8,14.1C1753,472.6,1744.6,476.5,1736,479.9z"/>
<path id="XMLID_364_" class="st8" d="M900.3,29c3.9,0.2,8.4,2.3,12.7,4.7c40.5,22.7,60.7,57.9,63,103.7c1.1,21.5-2.6,42.1-14.2,60.8
	c-0.3,0.6-0.8,1-1.8,2.2c9.3-32.9,11.6-65.1,1.2-97.5C950.7,69.7,927.9,47,900.3,29z"/>
<path id="XMLID_363_" class="st8" d="M217.1,889c0.6-4,3.3-5.7,7-6.1c14.5,3.7,23.1,14.1,27.9,27.1c8.3,22.5,8.8,45.3-2,67.4
	c-3.8,7.7-9.3,13.8-17.4,17.2c-2.6,1.1-4.4,3-6.2,4.9c-9.6,9.7-17.2,13.8-30.4,16.1c3.3-3.4,7-5.9,10.8-8.2
	c11.1-6.6,20.7-15.1,29.8-24.1c7.7-7.6,10.9-17.7,12-28.3c1.3-12,0.9-24-2.6-35.6c-3.4-11.3-9.2-20.9-19.3-27.6
	C223.7,889.6,220.5,889.1,217.1,889z"/>
<path id="XMLID_362_" class="st8" d="M1545.8,248.2c14.5,8.8,28.8,17.9,42,28.7c0.3,0.2,0.5,0.4,0.8,0.6c2.4,1.3,2.8,5.9,5.9,5.1
	c2.2-0.6,3.8-3.6,5.6-5.5c13.1-13.6,28.5-23.5,46.8-28.3c7.8-2.1,15.8-2.3,24.1-1.3c-31,8.9-57.8,24.9-81,48.2c4-8.1-1-9.3-6.1-11.9
	c-15.1-7.6-28.1-18.4-41.9-28c-1.1-1.3-2.2-2.6-3.3-3.8c-1.2-3.1,0.8-4.2,3.2-5l0,0C1543.6,246.5,1544.9,246.7,1545.8,248.2z"/>
<path id="XMLID_360_" class="st8" d="M1144.9,201.1c15.3,3.5,31,5.8,46.4,2.3c13.2-3,23.1-12.3,31.9-22.3
	c8.8-10.1,15.7-21.2,16.9-34.9c0.7-7.6,1.3-15.3-4.9-21.5c-1.6-1.6,0-2.3,1.4-2.6c3.9-0.7,6.4,1.1,8.1,4.4
	c3.7,7.4,4.2,15.4,3.1,23.4c-3.7,27-32.8,56.9-59.6,61.5c-3.2,0.5-6.5,1.1-9.4,0.1c-9-3.1-18.4-2.2-27.6-3.7
	c-6.4-1-12.6-2.8-18.3-7.2c1.4-0.3,2.3-0.5,3.1-0.7C1139,200.3,1141.9,200.7,1144.9,201.1z"/>
<path id="XMLID_359_" class="st8" d="M851.1,327.2c-1.5-0.6-3.8,0.7-4.6-1.6c-0.8-2.2,1.7-2.3,2.6-3.5c3.9-4.7,9.4-5.1,14.9-5.1
	c11.7-2.9,23.7-4.8,33.8-12c31-15.4,51.3-41.2,67.9-70.6c-1.9,17.9-10.6,32.5-22.2,45.4c-22.9,25.3-51,41.2-85,46.3
	C856,326.3,853.5,326.8,851.1,327.2z"/>
<path id="XMLID_358_" class="st8" d="M1458.2,506.8c2.7-7.7,7-14.2,12.3-20.1c19.3-21.5,36.3-44.6,51.1-69.4
	c4.9-8.3,8.5-17.3,13.8-25.4c1-1.4,2-2.6,3.5-3.5c1.3-0.8,2.5-0.7,3.5,0.6c2,2.4-1.1,1.2-1.4,2c-0.9,2.3-2,4.6-2.7,7
	c-2.9,10.5-7.2,20.4-12.9,29.6c-15.3,24.9-32.2,48.5-54.9,67.4c-3.5,2.9-5.1,7.4-8.7,10.2C1460.9,505.9,1460.3,507.4,1458.2,506.8z"
	/>
<path id="XMLID_357_" class="st10" d="M645.6,482c-1.9-2.6-3.7-5.2-5.6-7.7c1.7-27.8,1.9-55.6,2.6-83.3c0.9-37.3,0.2-74.6-1-111.9
	c-0.1-1.6,0-3.2,0.5-4.9c2.7,6,3.2,12.4,3.7,18.7c3.1,36.7,2.8,73.5,2,110.3C647.3,429.4,646.4,455.7,645.6,482z"/>
<path id="XMLID_356_" class="st8" d="M742.9,199c5.6,2.3,5.5,2.3,6.4-3.3c2.2-14,6.8-27,14.5-39c5.7-8.9,13.4-15.5,23.3-21.5
	c-6.8,10.5-14.5,19.2-19.2,29.7c-7.7,13.3-12.1,27.8-13.9,43c0,0.8-0.2,1.7-0.5,2.4c-0.4,1-0.6,2.5-2.1,2.5c-1.1,0-1.6-1.2-1.9-2.1
	c-1.1-3.9-3.9-3.8-7.1-3.4c-14.2,2.1-28.6,1-42.8,0.8c-6.8-0.1-8.4-2.1-7.4-7.1c2.7-2.9,6.5-1.6,9.7-2.4
	C715.6,198.8,729.2,198.9,742.9,199z"/>
<path id="XMLID_355_" class="st7" d="M293.1,1118.2c-3.9,0.7-6.2-1.1-7.4-4.8c-1.1-3.5-2.6-6.8-3.8-10.3c-0.4-1.2-1.2-3-0.7-3.8
	c2.9-4.7-0.7-8-2.5-11.4c-8-14.8-11.2-31.2-17.3-46.6c-1.3-3.2-2.5-6.5-3.8-9.7c-0.7-1.6-0.8-3.2-0.6-4.9c0.2-1.7,0.5-3.7,2.4-4
	c1.8-0.2,2.1,1.9,2.7,3.2c2.2,5,4.6,9.9,8,14.2c6.8,16.9,14.7,33.4,19.6,51.1c1.9,6.8,2.5,14,5.7,20.5
	C296.5,1114,295.4,1116.5,293.1,1118.2z"/>
<path id="XMLID_354_" class="st4" d="M754,1173.1c0,0.6-0.1,1.2-0.1,1.8c-10.6,4.3-21.2,3-31.6-0.8c-16.9-6-32.5-14.5-46.7-25.4
	c-4.6-3.6-8.8-7.7-11.6-12.9c-0.8-1.3-2-3.3-0.3-4.5c1.3-1,2.7,0.4,3.9,1.4c23.4,19.3,51.4,29.6,79.6,39.1
	C749.4,1172.5,751.7,1172.6,754,1173.1z"/>
<path id="XMLID_353_" class="st11" d="M692.2,201.1c-1.3,3.9,0.8,5.1,4.2,5.3c15.4,0.8,30.8,1.4,46.1-0.4c6.9-0.8,6.9-1,9,6.2
	c0.9-1.5,1.7-2.9,2.5-4.3c1,4.1-0.2,7.1-4.3,8.5c-12.8,4.4-25.9,6.8-39.5,5.3c-5.9-0.6-11.9-1.2-17-4.7c-4.7-3.2-7.4-6.7-3-11.7
	C691.2,204.1,690.2,201.9,692.2,201.1z"/>
<path id="XMLID_352_" class="st9" d="M1171,250.2c-3.6,8-4.4,16.8-7.6,24.8c-5.9,14.7-11.8,29.4-19.1,43.5
	c-3.1,6.1-8.3,11.1-9.9,18.3c-0.6,2.7-3.5,4.4-6.4,3.1c-3-1.3-3-3.9-1.7-6.7c1.8-3.9,3.3-8,5.4-11.8c0.8-1.5,0.9-5.1,4.6-3
	c1.2,0.7,1.2-1.2,1.4-1.9c3-14.7,9.7-28,16.7-41c3.3-6.2,5.5-12.8,8.3-19.2c1.2-2.8,2.5-5.5,5.5-6.9
	C1169.3,248.7,1170.8,247.9,1171,250.2z"/>
<path id="XMLID_351_" class="st8" d="M1475.8,514.2c9.5,7.1,20.3,11.8,31,16.8c11.4,5.3,23,10.7,30.6,21.6c0.6,0.8,1.4,1.4,1.2,3.1
	c-10.1-2.2-19-7.2-28.6-10.6c-5.8-4.2-12.8-6.1-19.1-9.4c-8-4.2-15.4-9.1-21.2-16.1c-1.6-1.9-4-3.9-1.9-6.4c1.9-2.2,4.1,0,6.1,0.8
	C1474.4,514.2,1475.1,514.2,1475.8,514.2z"/>
<path id="XMLID_350_" class="st9" d="M200.9,1019.4c11.6,31.6,28.2,61.4,34.8,94.9C220,1096.4,196.5,1032.9,200.9,1019.4z"/>
<path id="XMLID_349_" class="st9" d="M839.8,412.8c-1.5,0.6-3,1.2-3-1.3c0-1.7-0.2-3.3-0.1-5c1.5-17.9,0.8-35.9,1.2-53.9
	c0.2-9.1,1.3-18.1,4.1-27c3.1,10.6,3.5,21.5,4.1,32.4c-0.5,11.9,0.5,23.9-0.8,35.8C844.5,400.4,842.9,406.8,839.8,412.8z"/>
<path id="XMLID_348_" class="st8" d="M777.2,434.8c-1.2-0.5-2.4-1-3.6-1.5c-1.2-0.5-1.8-1.5-1.6-2.8c0.1-1.2,1.1-1.6,2.1-1.8
	c1.9-0.5,3.9-1.3,5.8-1.3c10.4,0.3,20.4-1.9,30.6-3.5c8.8-1.4,17.7-2.9,26.7-0.8c2.5,0.8,5,1.5,8.4,2.5c-8,3.6-15.8,4.7-23.4,6.5
	c-11.1,3.6-22.5,6-34.3,5.4c-1.4-0.1-2.6-0.7-3.8-1.3C781.7,435.7,779.4,435.3,777.2,434.8z"/>
<path id="XMLID_347_" class="st7" d="M1427.2,630.2c3.6-1.6,6.1-0.9,8.3,2.7c5.3,8.7,14.8,10.8,23.5,13.6c5.8,1.9,11.3,4.5,17.1,6.4
	l0,0c-9.7,3.5-19.7,4.4-30,3.1c-8.6-1.5-15.7-5.4-20.1-13.2C1423.2,638.3,1423.1,634,1427.2,630.2z"/>
<path id="XMLID_346_" class="st9" d="M1613.2,410.8c-7.2-2.5-14.8-2-22.2-2.8c-16.1-3.7-32.5-6.2-47.9-12.4
	c11.8-1.8,23.5-0.5,35,1.8c18.3,3.7,37,6.3,54.6,13c3.5,1.3,7.5,1.1,11.3,1.5c-5.6,1.9-11.4,0.6-17,1.1c-2.3,1.5-4.5,0.1-6.7-0.2
	c-1.7-0.6-3.4-0.7-5.2-1C1614.3,411.9,1613.6,411.5,1613.2,410.8z"/>
<path id="XMLID_345_" class="st12" d="M206.7,895.8c-8.2,9.5-13.1,20.7-16.8,32.5c-2.1,6.8-3.9,13.7-5.8,20.6
	c-0.4,1.3-0.7,2.9-2.4,2.6c-1.6-0.2-1.7-1.8-1.8-3.2c-0.4-6.4,0.5-12.6,2-18.8c3.6-15.1,9.6-29.1,21.3-39.9
	c4.1-3.8,8.9-6.8,15.1-6.5c-0.4,2.2-2.6,2.5-3.3,4C211.8,889.5,208.9,892.3,206.7,895.8z"/>
<path id="XMLID_344_" class="st13" d="M628.7,268.4c-20.5-17.2-44.4-29.1-65.8-44.7c-0.8-0.6-1.6-1.2-2.4-1.8
	c-0.9-0.7-1.9-1.5-1.1-2.9c0.8-1.3,1.9-0.9,3.1-0.4c3.6,1.7,7.3,3.2,10.8,5.1c14.7,8.1,29.9,15.3,42.3,27
	C621,255.7,625.9,261.2,628.7,268.4z"/>
<path id="XMLID_343_" class="st9" d="M1176.8,138.8c-2.6,1.4-5.3,2.7-7.9,4.1c-1,0.5-2.2,1.6-3.1,0.5c-1.2-1.3,0-2.5,0.8-3.5
	c4.8-5.6,10.8-9.9,17.1-13.6c10.5-6.2,21.8-10.5,34.1-11.9c8.3-1,16.7,1.3,21,6.3c-6.2-0.1-12-1.6-17.7,0.3
	C1204.5,122.6,1190.2,129.4,1176.8,138.8z"/>
<path id="XMLID_342_" class="st8" d="M808,547c-2.2-1.9-5.3-2.7-6.5-5.8c-0.9-2.4-1.2-4.8,0.7-6.9c1.8-1.9,3.7-1.6,5.9-0.8
	c4.9,1.9,9.9,2.3,14.9,0.4c7-0.3,13.3-4.1,20.3-4.7c0.6-0.1,1.3-0.1,2.1-0.2C834.3,544.4,820.9,550.8,808,547z"/>
<path id="XMLID_341_" class="st2" d="M783.9,436.1c12.9,1.1,25.3-3.1,38.1-4.1c-7.9,10.9-19.6,12.9-29.7,10
	C788.9,441,785.9,439.2,783.9,436.1z"/>
<path id="XMLID_340_" class="st9" d="M137.9,937.9c4.8,0.1,8.9,2.7,13.3,4.1c6.8,2.1,13.6,4.1,20.7,6.2c-5.8,5.2-17.1,3.7-32.9-4.1
	c-0.8-1.7-3.9,0.7-4.1-2.3C134.7,939.4,136.1,938.5,137.9,937.9z"/>
<path id="XMLID_339_" class="st14" d="M259.1,1127.1c6.6-1.1,13.1-2.1,19.7-3.2c0.1,0.2,0.1,0.4,0.2,0.7c-5.4,2.4-10.7,4.8-16.1,7.2
	c-6.6,1.8-12.4,5.7-19,7.1c-3.2,0.7-5.8,0.2-5.7-3.9c0-1.4-0.2-3.2,2.5-1.7c1.1,0.6,3.3-0.9,5-1.5
	C250.1,1130.3,254.6,1128.7,259.1,1127.1z"/>
<path id="XMLID_338_" class="st15" d="M316.1,1187c0.5-12.3-5.6-21.8-13.5-30.4c-1.6-1.8-4-3-4.7-5.6c10.7-0.1,19.7,9.1,20,20.9
	C318,1177,317.6,1182.1,316.1,1187z"/>
<path id="XMLID_337_" class="st16" d="M1077.2,314.2c4.6,1.9,9.2,3.8,13.8,5.7c6.5,3.7,13,7.2,19.1,12.7c-4.1,0.1-7.1-1.7-10.2-2.9
	c-6.5-2.5-13-5.1-19.4-8C1077.5,320.4,1074.1,318.6,1077.2,314.2z"/>
<path id="XMLID_335_" class="st2" d="M1446,656c10.3,1.5,20-1.9,30-3.1c-4.1,3-9,3.9-13.9,4C1456.7,657,1451.2,658.2,1446,656z"/>
<path id="XMLID_334_" class="st2" d="M1684.8,248.8c8.1-1.4,16.2-1.5,24.3,0C1701,248.9,1692.9,248.8,1684.8,248.8z"/>
<path id="XMLID_333_" class="st2" d="M1545.8,248.2c-1.3-0.4-2.6-0.8-3.8-1.1c1.4-1.8-0.5-2.7-1.1-3.9c1-0.4,0.7-2.1,2-2.2
	c1.5,2.1,5.4,2.9,3.3,6.8C1546.1,247.9,1546,248,1545.8,248.2z"/>
<path id="XMLID_332_" class="st2" d="M1542,247c-1.7,1.2-3.8,2.3-3.2,5C1536.7,248.4,1538.6,247.2,1542,247z"/>
<path id="XMLID_331_" class="st5" d="M483.8,375c15.6,8.4,31.1,16.8,46.7,25.3c4.5,2.4,9.4,4.3,11.7,9.5c-0.3,2.2-2,4.6,0.6,6.6
	c0.5,1.4,0.5,2.8-0.1,4.2c-4.5,4-4.5,4-0.9,10.8c0,0.8-0.2,1.4-0.7,2c-3.5,2.1-4.4,4.8-1.6,8.2c1.6,2,1.7,3.9-0.5,5.6
	c-2.2,1.7-2.6,4.1-2.6,6.7c0,5.2,0,10.3,0,15.5c0,4.8,0.5,9.6-3.1,13.7c-1.6,1.9-1.2,4.9-0.4,7.2c0.9,2.8,2.4,5.5,3.4,8.3
	c0.5,1.5,1.7,2.5,3.4,2.4c1.8-0.1,2.6-1.4,3-2.9c0.9-3.5,2.6-7.1-0.8-10.2c-1.1-1-0.9-1.9,0.1-3c3.9-4.3,4.2-9.1,2.1-14.3
	c-0.4-1-0.7-1.9-0.2-2.9c4.6-8.3,3-17.9,5.5-26.7c1.3-4.5-1.6-9.1-1.1-13.8c0.2-2.1,0.3-4,2-5.4c3.4-1.1,4.3,1.8,5.7,3.7
	c13.3,17.7,26.8,35.2,40.1,53c5.2,6.9,10.9,13.4,15.3,20.9c0.1,0.5,0,1-0.3,1.4c-1,16.9-2,33.7-3.2,50.6c-1.9,25.8-3.8,51.5-5,77.3
	c0,0.8-0.5,1.5-0.8,2.3c-2.4-1.5-3.8-4-4.2-6.5c-1.7-9-6.9-16.6-10.9-24.5c-4.6-9.2-9-18.5-14.9-27.1c-2.1-3.1-3.4-6.9-7.1-8.7
	c-1.3-0.6-1.4-2.2-1.8-3.4c-0.8-3-2.5-5.4-4.6-7.6c-1.5-1.6-3.4-2.3-5.4-1c-1.8,1.2-1.7,3.1-1.1,4.9c0.2,0.5,0.3,1,0.6,1.4
	c5.5,7.7,8.5,16.8,13.7,24.8c3.6,5.6,5.6,12.6,8.5,18.9c2.8,6.2,4.7,12.9,10.1,17.6c0.7,0.6,0.8,1.4,0.9,2.3c1,7.3,5,12.8,9.8,18.1
	c1.8,2,3.8,3,6.4,2.9c-0.7,10.3-1.4,20.7-2,31c-8.8-1.3-16.9,1.8-25.2,3.6c-1.5,0.3-2.1,1.5-2.3,2.9c-0.1,1.5,0.6,2.6,1.9,3.2
	c3.1,1.4,6.2,2.6,9.2-0.3c0.8-0.8,1.9-1.4,3.1-1.6c4.1,0.2,8.2-2.4,12.3,0.1c0.4,12.8-1.6,25.5-2,38.2c-0.1,3.6-2.7,2.4-4.7,2.7
	c-1.8,0.3-4.3-2.5-5.5,1c-2.2,0.1-2.5-1.9-3.3-3.2c-11-18.3-21.4-36.8-32-55.3c-14-24.2-28.8-48-42.8-72.1c-10.5-18-21-35.9-31.2-54
	c-1-1.7-2.8-3.5-0.9-5.8c10.7,0.6,21-2.8,31.5-3.8c5.6-0.6,10.8-2.4,15.8-4.6c6-2.6,12.2-4.2,18.4-6.1c1.1-0.3,2.2-0.7,3.2-1.4
	c1.2-0.8,1.7-2,1.4-3.5c-0.4-1.4-1.3-2.2-2.8-2.5c-1.3-0.2-2.7-0.1-3.9,0.3c-12.4,4.2-25.4,4.8-38.2,7.1c-2.3,0.4-4.7,0.7-6.3,2.6
	c-3,3.5-6.2,3-9.8,0.9c-4.5-2.8-5.6-2.6-9.3,1.5c-1.6,1.2-3.3,1.6-5.2,1.4c-2.3-1-3.3-3.2-4.4-5.2c-10.9-20.2-20.7-40.9-30.5-61.7
	c-2.8-6-6.3-11.7-8.1-18.2c-0.7-1.1-1.1-2.3-1.1-3.5c-0.2,1.5,0.7,2.8,1.3,4.1c8.5,26,18.7,51.3,29.5,76.4c1.1,2.6,4.1,5.3,1,8.5
	c-12.1,2.2-24.2,2-36.4,1.1c-0.6-0.2-1.1-0.6-1.4-1.1c-3.5-7.8-8.8-14.5-12.9-21.8c-1.5-2.8-2.3-5.4-2.3-8.4c0-33.1,0-66.2,0-99.4
	c1.7-2.1,4.5-2.3,6.4-1.7c4.1,1.2,5.3-1.1,6.6-3.9c0.6-1.3,0.7-3,2.4-3.5c3.2-0.1,5.5-2.5,8.5-3.1c0.7,1,0.1,2-0.4,2.8
	c-6,8.9-7.2,19.2-8.6,29.4c-0.6,4.4,0.2,8.8,3.4,12.5c-3.8-11.4-0.2-22,3.1-32.6c1.4-4.3,3.1-8.9,8.4-10.2c1.9,1.7,0.5,3.2-0.3,4.8
	c-3.4,6.5-0.5,11.3,6.8,11c1.8-0.1,3.7,0.1,5.5-0.2c2.7-0.5,5.2-1.5,5.7-4.7c0.4-2.9-1.4-4.8-3.9-5.7c-4.5-1.6-6.8-5.1-8.8-8.9
	c4.1-5.1,9.8-7.2,16-8.4c0.5,3.7-0.8,7.3,0.7,11.3c1.7,4.5,3.7,7.2,8.7,6.8c0.7,0.3,1.2,0.8,1.5,1.5c1.8,4.9,3.5,6,8.5,5.3
	c5.2-0.7,10.4-1.6,13-7.1c1-2.1,2-4.4-0.2-6.4c-2.3-2.1-4.6-1.5-6.7,0.2c-3.4,2.8-7,3.8-11,1.2c-1.1-0.7-2.5-1.4-2.2-3
	c0.2-1.4,1.7-1.5,2.8-1.6c3.1-0.3,4.7-2.2,5.6-4.9C479.2,374.9,481.3,374.2,483.8,375z"/>
<path id="XMLID_329_" class="st4" d="M354.2,1132.2c3.4-0.2,5.8,0.9,8.2,2.1c12.8,6.5,25,14,35.8,23.5c8.1,7.1,16.4,14.1,24.8,21
	c9.4,7.8,17.2,17.1,24.8,26.6c12.1,15.1,26.3,28.2,39.1,42.7c10.2,11.4,19.5,23.7,31.7,33.2c4.7,3.7,9.6,7.3,14.7,10.4
	c52.2,31.8,97.5,71.7,140.3,115c27.3,27.6,54.3,55.5,77.6,86.7c10.2,13.6,20.7,26.9,29.4,41.5c1,1.7,2.2,3.4,1.3,5.7
	c-4-1.5-6.9-4.3-9.9-7.2c-22.7-22.3-43.7-46.3-65.9-69.1c-25.9-26.6-51.6-53.5-77.3-80.2c-15.4-16-30.2-32.4-45-48.9
	c-3.1-3.5-6.7-6.4-10.9-8.6c-13.9-7.6-27.6-15.4-41.4-23.2c-15.9-8.9-29.9-20.2-41.2-34.4c-13.2-16.6-29.1-30.7-42.8-46.7
	c-2.8-3.3-5.6-6.6-8.3-9.9c-8.2-10.1-16.8-19.8-27.1-27.9c-17.9-14.2-33.8-30.6-51.7-44.9C358,1137.6,356,1135.2,354.2,1132.2z"/>
<path id="XMLID_328_" class="st4" d="M459.9,524.9c-9.8-23.5-20.4-46.8-28.3-71.1c-1.5-4.5-3.5-9-3.5-13.9l-0.1,0.1
	c4.1,5.7,6.8,12.1,9.8,18.3c10.4,22.2,20.7,44.5,33,65.9c0.1,0.1,0.2,0.3,0.3,0.4c2.4,1.7,3.3,4.3,4.8,6.6c0.4,0.9,0.8,1.7,0.4,2.7
	c8.9,17.3,19.2,33.8,28.9,50.7c20.8,36.2,43.2,71.4,63.3,107.9c5.8,10.6,12.3,20.9,18.5,31.3c25.5,44.8,52.7,88.8,76,136.2
	c-10.9-4.9-16.7-13.6-22.9-21.4c-14.8-18.5-26.9-38.9-39.4-58.9c-12-19.2-23.6-38.6-35.4-58c-11.7-20.7-23.2-41.5-35-62.1
	c-21.2-37.3-41.8-75-60.5-113.6c-2.1-4.3-4.2-8.7-6.3-13C461,530.9,459.6,528.3,459.9,524.9z"/>
<path id="XMLID_327_" class="st4" d="M668.3,874.5c38.7,57.7,67.6,118.7,85,184.8c17.3,65.6,30.4,131.8,22.2,200.9
	c-5.1-2.2-5.6-6-5.2-9.5c1.9-21-1.8-41.5-4.7-62.1c-9.5-66.5-27-130.9-48.9-194.3c-13.3-38.6-29.2-76.1-46.1-113.3
	C669.9,879.1,668.2,877.8,668.3,874.5z"/>
<path id="XMLID_326_" class="st4" d="M1125.1,1757c-14.8-5.1-28.9-10-43.1-14.7c-61.5-20.5-116.5-52.9-169.2-90
	c-30.1-21.2-59.5-43.3-85.8-69.2c-15.1-14.8-29.5-30.3-41.7-47.6c-1.1-1.6-2.1-3.3-2.6-5.5c2,1.7,4.2,3.4,6.1,5.2
	c44.1,42.1,92.9,78.2,142.7,113.1c34.1,23.9,69.2,46.3,105.7,66.4c15.5,8.5,31.7,15.5,48.1,22.1c11.4,4.6,22.8,9.3,33.8,15
	C1121.2,1753,1123.3,1754.2,1125.1,1757z"/>
<path id="XMLID_325_" class="st4" d="M1168.3,795.5c-13.8-7.1-27.4-14.5-42-19.4c-16.7-5.6-33.6-9.6-51.4-6c-2.3,0.5-4.5,1.2-6.7,2
	c-1.3,0.4-3,1.1-2.5,2.6c0.7,2.4-0.6,2.9-2.3,3.4c-1.8,0.5-3.2-0.2-4.4-1.7c-2.4-2.9-2.5-6-0.9-9.3c2.4-4.9,6.6-7.3,11.5-8.8
	c14-4.3,28-3.2,41.9-0.2c22.6,4.8,41,16.8,55.7,34.5c0.4,0.5,0.8,1.1,1.1,1.6C1168.5,794.5,1168.4,794.8,1168.3,795.5z"/>
<path id="XMLID_323_" class="st5" d="M602,643c-1.3,1.2-2.6,3.1-4.5,1c-5.9-6.4-12.2-12.5-12.7-22c-0.2-2.8-3.5-2.8-4.7-5.2
	c-2.7-5.7-5.4-11.4-7.8-17.2c-1.9-4.7-4.6-8.9-5.9-14c-1-4.1-5.7-7.6-7.3-12.1c-2.2-5.8-5.9-10.7-8.5-16.2c-1.3-2.7-0.5-5.2,1.7-6.6
	c2-1.3,4.5-1.1,6.5,0.7c0.6,0.6,1.3,1.1,1.7,1.8c6.7,12.7,16.9,23.2,22.5,36.6c3.2,7.6,7.3,14.9,11.5,22.1
	c3.5,6.1,3.8,13.4,7.6,19.3c0,3-0.1,6-0.1,9c-3.2-2.3-4.2-6.1-5.8-9.4c-5.1-11.4-11-22.4-16.3-33.7c-5.3-11.3-12.2-21.6-17.3-30.2
	c6.4,12.2,13.8,26.8,20.7,41.5c5.4,11.4,10.5,22.9,18.8,32.7C603.3,641.7,603,642.3,602,643z"/>
<path id="XMLID_322_" class="st4" d="M1311.4,793.8c21,0.8,39.6,7.9,56.4,20.3c1.3,1,3,2,2.3,4c-0.7,1.9-2.5,2.1-4.2,1.8
	c-20.3-3.5-40.6-7.3-59.7-15.7c-3-1.3-7.8-1.9-6.6-6.6c1-4.3,5.5-3.4,8.9-3.8C1309.4,793.7,1310.4,793.8,1311.4,793.8z"/>
<path id="XMLID_321_" class="st17" d="M638.7,531.4c0.7-10.3,0-20.6,1.2-30.9c1.7,2.4,3.4,4.8,5.2,7.3c-1.4,11.7-1.5,23.5-1.8,35.2
	c-1.6,15.6-1.1,31.3-3.5,46.9c-2-17.7-1.9-35.3-0.9-53C639,535,638.8,533.2,638.7,531.4z"/>
<path id="XMLID_320_" class="st18" d="M602.1,640.9c-3.5-1.4-5.6-4.5-7.1-7.5c-12.2-23.8-24.1-47.7-35.5-71.8
	c18,24.1,29.7,51.5,42.5,78.5C601.9,640.4,601.9,640.7,602.1,640.9z"/>
<path id="XMLID_319_" class="st19" d="M599,681.9c-4.3,0.3-8.5,0.6-12.8,1c-2.1-0.3-4.2,0.9-6.3,0.1c-1.5-0.5-3.6-0.6-3.7-2.6
	c-0.1-1.7,1.8-2.2,3.1-2.8c1.1-0.5,2.2-0.8,3.4-0.9c6.6-0.1,12.9-2.5,19.5-2.7c4.6-1.2,8.3-4.1,12.6-5.9c1.4-0.6,3.3-2.5,4.4-0.9
	c1.3,1.9-1.2,3.1-2.3,4.3C612.1,677.1,605.4,679.3,599,681.9z"/>
<path id="XMLID_318_" class="st5" d="M602.1,674.1c-5.5,2.4-11.3,3.5-17.3,4c-2.8,0.2-5.5,0.9-8.2,1.9c2.8,3.1,6.7,1.3,9.6,2.9
	c-5.2,4.6-7.5,4.9-13.1,2c-2.4-1.2-2.1-3.2-2-5.1c0.2-1.9,0.8-3.4,3.2-3.8c6.5-1.1,13-2.5,19.5-3.8c2.4-0.5,4.6-0.5,6.2,1.8
	C600.7,674,601.4,674.1,602.1,674.1z"/>
<path id="XMLID_317_" class="st6" d="M526.9,697.8c0.9,0.3,1.9,0.5,2.8,0.8c-0.6,0.2-1.2,0.3-1.8,0.5c-38,1.7-75.8-2.6-113.8-4.1
	c-29.1-1.1-58.3-2-87.4-3.1c-32.3-1.2-64.6-2.6-96.9-3.5c-12.8-0.3-25.7-0.6-38.2,3c-7.1,2-13.9,1-20.4-1.9
	c-8.5-3.8-15.6-9.5-21.3-16.9c-2.8-3.7-4.2-7.9-4.3-12.5c0-1.5,0.2-3.3,1.9-3.7c2-0.5,2.2,1.5,2.8,2.8c7.7,15.6,29,28,46.5,26.6
	c49.1-3.8,98.3-2.1,147.5-1.2c23.8,0.4,47.6,1.7,71.4,2.6c30.6,1.1,61.1,3.6,91.4,8.1C513.8,696.3,520.4,697,526.9,697.8z"/>
<path id="XMLID_316_" class="st6" d="M421.1,525.9c0.3,0.1,0.7,0.2,1,0.4c2.8,2.2,4.8,4.9,5,8.7c-0.1,0.2-0.1,0.3-0.1,0.5
	c-7.5,0.1-15,0.4-22.5,0.3c-34.1-0.3-68.3-0.2-102.3-2.7c-16.6-1.2-33.2-2.3-49.6-5c-5.4-0.9-10.6-2.7-15.8-4.6
	c-2.1-0.7-3.9-1.9-5.1-4.1c28.5,3.9,57.1,3.7,85.5,5.4C351.9,526.7,386.5,526.5,421.1,525.9z"/>
<path id="XMLID_315_" class="st20" d="M237.9,256c0.8,14.6-0.5,28.1-1.1,41.5c-1.2,27-1.8,53.9-1.8,80.9c0,26.7,1.1,53.3,2,79.9
	c0.4,10.7-0.4,21.3-2,31.8c-0.4,2.7-0.7,5.5-3.2,7.8C226.6,417.3,222.6,337,237.9,256z"/>
<path id="XMLID_314_" class="st4" d="M457,374.1c-5.7,1.9-11,4.6-16,7.9c-0.2,0.9-0.8,1.4-1.5,1.9c-0.6,0.5-1.3,0.9-1.9,1.5
	c-0.5,0.4-1,0.7-1.7,0.7c-7,4.3-8.1,11.8-9.8,18.8c-1.9,7.7-3.9,15.6-0.4,23.4c0.3,0.7,0.2,1.6,0.2,2.5c0,0.5-0.2,1-0.3,1.7
	c-5.6-3.8-7-9.6-6.3-15.3c1.3-11.7,2.8-23.4,10.5-33.2c2.2-1.9,4.3-3.9,6.5-5.8c0.7-1.4,1.8-2.1,3.4-1.9c6.3-2.7,12.1-6.6,19-8
	c1.6-0.3,2-2,2.9-3.2c1.5-3,3.7-5.2,7.1-5.8c12.5-6.1,25.6-8.6,39.5-7.9c6.8,0.3,11.9,3.8,16.4,8.4c1.2,1.2,3.2,2.8,2.1,4.6
	c-0.9,1.5-3.1,0.6-4.6,0.3c-12.2-1.9-24.4-1.3-36.6,0.3c-1.3,0.9-2.7,1.6-4.2,1.9c-6.6,0.6-12.4,3.5-18.3,6.2
	c-0.9,0.2-1.8,0.4-2.7,0.7C459.2,374.1,458.2,374.7,457,374.1z"/>
<path id="XMLID_313_" class="st20" d="M552.1,376.7c-2.1-0.4-3.2,0.3-2.5,2.6c0.5,1.5,1.2,3,1.7,4.5c1.6,4.2,0.9,8.4,0.3,12.7
	c-1.1,6.5-0.4,13.2-2.5,19.5c-0.8,1.6-1.9,1.5-3.1,0.4c-1.4-1.4-2.7-2.9-3.3-4.8c-0.1-0.5-0.1-1.1,0.1-1.6
	c4.7-54,8.7-107.9,2.6-162.7c3.1,1.3,3,3.5,3.4,5.2c5.1,22,6.8,44.4,6.6,67C555.3,338.5,554,357.6,552.1,376.7z"/>
<path id="XMLID_312_" class="st21" d="M289.9,399.7c8.9,0,16.2-3.4,23.4-7.3c2.4-1.3,6.1-3.9,7.9-1.3c1.2,1.7-3.1,4-5.1,5.8
	c-7.8,7.5-17.2,6.6-26.7,4.9c-2.2-0.4-2.2-2.7-2.5-4.3c-1.7-8.7-2.7-17.4-1.9-26.3c0.7-7.8,1.9-15.5,2.7-23.2c0.4-4,0.4-6.8,5.9-8.6
	c7.3-2.4,13.5-2.5,20.1,0.6c2.6,1.2,4.8,3,6.1,5.7c0.5,1,1.3,2.2,0.6,3.3c-0.9,1.4-2.1,0.4-3.1,0.1c-3.9-1-7.8-1.8-11.5-3.1
	c-2.8-0.9-5.5-1-8.3-1.1c-3.5-0.1-5,0.9-4.4,4.9c1.6,10.8-1,21.5-1.5,32.3C291.2,387.8,290.5,393.6,289.9,399.7z"/>
<path id="XMLID_311_" class="st22" d="M351.1,359.4c-2.3,2.8-5.3,3.7-8.1,4.8c-5.8,2.2-2.1,6.8-2.6,10.3c-0.4,3.4,2.4,3.4,4.9,3.3
	c3.5-0.2,6.9-0.6,10.4-0.9c0.8-0.1,1.7,0,1.9-1.1c1-4.1,1.3-8.1-0.3-12.1c-0.4-0.9-2.6-1.1-1.2-2.6c1-1.1,2.5-1.9,4.1-1.6
	c2.3,0.4,4.1,1.8,4.4,4.2c0.4,4.3-0.4,8-2.2,12.3c-3.8,9.3-11.1,6.9-17.8,7.4c-1.2,0.1-2.7-1.2-3.5,0.5c-0.6,1.3,0.3,2.5,1,3.7
	c4.2,6.8,4.3,6.8,13.9,4.6c1.6-0.4,4.4-2.6,5.1,0.3c0.7,2.9-2.2,4.2-4.9,4.5c-11.6,1-18.9-2.9-18.9-16.1c0-3.5-0.1-7,0.2-10.5
	C338,362.9,342.7,359,351.1,359.4z"/>
<path id="XMLID_310_" class="st23" d="M384.1,357.2c1.4,12.6-2,24.8-2.6,37.2c0,1-0.1,2.6-1.8,2.4c-1.1-0.1-1.4-1.2-1.6-2.2
	c-1.2-4.8-0.7-9.5-0.1-14.4c1.2-10.9,1.2-21.9,1.2-32.9c0-2.5-0.4-6.4,2.6-6.5c2.1-0.1,2.2,4,2.3,6.4
	C384.3,350.6,384.1,353.9,384.1,357.2z"/>
<path id="XMLID_309_" class="st24" d="M480.8,365.6c1.5-0.7,3-0.7,4.6-0.6c-1,3.3,1.5,7.1-1.7,10c-1.8,1-4.2,0.5-5.8,2
	c-3.2,2.3-6.8,1.1-10.2,1.2c-3.1,0.1-3.7,1.3-2.8,4.1c2.3,7.2,12.2,9.8,17.9,4.7c1.2-1.1,2.4-3,4.1-1.7c1.7,1.3,0.9,3.4,0,5.1
	c-3.2,6.5-13.1,7.8-20,2.7c-0.4-0.3-0.8-0.7-1.2-1c-5.6-4-8.8-13.8-6.1-18.9c0.6-0.7,1.4-1.2,2.4-1.1c5.6,0.3,10.9-1.3,16.3-2.5
	C480.3,369.1,480,366.9,480.8,365.6z"/>
<path id="XMLID_308_" class="st25" d="M405.4,359.6c5.7-4.2,10.6-2.8,15.3-0.8c3.9,1.7,4.5,5.5,4.4,9.3c-0.1,1.7-0.2,3.3-0.4,5
	c-0.2,2.7-0.8,3.8-4.3,3.3c-3.8-0.6-7.8,0.8-11.8,1.3c-1.6,0.2-3.3,0.5-4.9,0.4c-1.9-0.1-3.1-1.6-3.2-3.3c-0.1-2.6,2.1-1.3,3.3-1.5
	c5-1.1,9.7-3.3,15-3.3c2.1,0,1.3-6.9-1.2-9c-1.2-1-2.6-1.4-4.1-1.4C411.2,359.7,408.8,359.6,405.4,359.6z"/>
<path id="XMLID_307_" class="st22" d="M199,579.1c-7.5,19.9-15.1,39.7-25.1,59.5C172,629.9,188.5,591.4,199,579.1z"/>
<path id="XMLID_306_" class="st23" d="M439.8,376.2c-1.1,0.6-2.3,1.3-3.4,1.9c-1.4-4.9,1.4-10.6-2.6-15.1c3.8-5.5-0.5-13,4.4-18.3
	c0.6-0.7,0.8-2,2.1-1.7c1,0.3,1.4,1.4,1.5,2.4c0.2,2.2,0.4,4.3-1.8,5.8c-1.2,0.9-1,2.5-0.5,3.7c0.7,1.7,1.9,0,2.9,0
	c2.2,0,4.3-0.2,6.5,0c1.7,0.1,3.6,0.7,3.8,2.6c0.3,2.1-1.5,3.3-3.3,3.8c-1.9,0.5-3.9,0.5-5.9,0.5c-2.9-0.1-4.3,0.9-4,4
	C439.7,369.2,439.7,372.7,439.8,376.2z"/>
<path id="XMLID_305_" class="st26" d="M421.4,387.1c-0.7,2-1.1,4.2-2.2,5.9c-1.3,2.1-2,5.5-6.1,2.7c-1.6-1-4.7,0.2-7.1,0.5
	c-8.8-3.9-12.6-11-11.6-21.5c2.3,0.6,1.2,2.8,2,4c1.3-1-0.3-3,1.6-4.1c0.8,5.5,0.6,11.1,5.4,15.5c3.5,3.2,7.8,0.2,11,2.8
	c1.2-2.3,2.2-4.8,3.7-6.9C420,383,421.1,384.3,421.4,387.1z"/>
<path id="XMLID_304_" class="st27" d="M322.7,346.3c7.3,10.5,7.4,39.1,0.5,44.8C324.7,376.3,324.5,361.9,322.7,346.3z"/>
<path id="XMLID_303_" class="st5" d="M542.8,410c0.1,0.4,0.2,0.8,0.3,1.1c0.3,1.8,1.9,3.8-0.9,4.9c-4.4-2.1-4.4-2.3-0.1-6.2
	C542.3,409.9,542.6,409.9,542.8,410z"/>
<path id="XMLID_302_" class="st28" d="M468.8,359.2c-2.4,1.9-4.7,3.8-7.1,5.8C462.9,358.9,464,358.1,468.8,359.2z"/>
<path id="XMLID_299_" class="st8" d="M1538.1,539.1c23-25.5,37.1-56.7,62.4-79.3c0.4,0.3,0.8,0.5,1.2,0.8c-3,5.9-5.6,12.1-9,17.8
	c-10.7,17.3-21.3,34.6-34.8,49.9c-3.6,4.1-7.8,7.7-12.6,10.5C1543.5,539.7,1541.9,540.3,1538.1,539.1z"/>
<path id="XMLID_297_" class="st8" d="M761,304.1c1.8-1.1,2.8-2.4,3.4,1.5c1.3,8.8,4.9,17.1,5.9,26c0.6,5.2,1.1,10.5,1.6,15.7
	c-0.2,10.1-0.2,20.3-0.6,30.4c-0.4,12-2.7,23.8-5.7,35.4c-1.2,4.8-0.6,9.6-1.7,14.3c-0.3,1.3-0.2,2.7-1.9,3.6
	c-2.1-6.3-2.5-12.7-1.6-19.1c3.5-26,4.5-52,2.6-78.1c-0.5-6.1-1.4-12.2-2.3-18.3C760,311.6,759.9,307.8,761,304.1z"/>
<path id="XMLID_295_" class="st12" d="M1090.3,295.6c2.1-22.8,27.1-79.4,39.9-89.9C1130.1,214.4,1096.2,290.9,1090.3,295.6z"/>
<path id="XMLID_294_" class="st29" d="M1159.4,133.7c-5.4-1.4-8.8-5-11.7-9.2c-4-5.8-5.8-12.6-9-18.7c-1-2,0.4-2.7,2.1-2.8
	c2.1-0.2,3.5,1.1,4.3,2.8C1149.4,115.3,1154.4,124.4,1159.4,133.7z"/>
<path id="XMLID_293_" class="st1" d="M547.8,416.9c1.2-11.1,2.4-22.1,3.5-33.2c20.9,26.7,43.2,52.3,62.6,80.1
	c-1.7,4.2-1.4,8.7-1.8,13c-0.8,7.7-0.9,15.4-1.4,23.1c-19.2-25.3-38.4-50.7-57.6-76c-0.6-0.8-1.4-1.4-2.2-2
	c-1.9-0.5-2.5-2.2-3.5-3.7C547.5,417.7,547.6,417.3,547.8,416.9z"/>
<path id="XMLID_292_" class="st4" d="M1428.1,758.8c4.7,1.4,9.7,2.2,13.9,4.5c6.4,3.5,13.8,4.8,20.2,5.8c7.4,1.1,16.4,5.7,23.9-1.1
	c0.6-0.5,1.2-0.5,1.8,0c4,3.3,8.4,2.2,12.8,1.3c2-0.4,3.9-0.3,5.8,1.3c-1.6,2.1-4.2,1.9-6.2,2.4c-15.7,4.5-31,5-46.6-1.8
	C1445,767.5,1436.3,764.1,1428.1,758.8z"/>
<path id="XMLID_291_" class="st0" d="M1407.9,746.1c1.7-0.2,3.3,0.2,4.8,1.5C1410.6,748.1,1409.3,747,1407.9,746.1
	C1408,746,1407.9,746.1,1407.9,746.1z"/>
<path id="XMLID_290_" class="st30" d="M427.1,534.9c-1.7-2.9-3.3-5.8-5-8.7c12.6-0.4,25.2-0.9,37.7-1.3c1.4,2.6,2.9,5.2,3.5,8.1
	C451.3,534.1,439.3,535.4,427.1,534.9z"/>
<path id="XMLID_289_" class="st9" d="M767.7,307.3c24.6-18.2,53.7-26.9,81.2-37.5C841.8,278.2,785.5,304.8,767.7,307.3z"/>
<path id="XMLID_287_" class="st2" d="M1719.9,241.1c2.1-0.3,4.2-0.6,6.1,0.9C1723.9,242.2,1721.8,242.2,1719.9,241.1z"/>
<path id="XMLID_20_" class="st8" d="M315.5,1174.4c-3.5-9.6-9.7-17.1-17.7-23.3c-4-5.2-9.2-6.3-15.1-4.4
	c-14.8,4.8-25.9,13.9-30.1,29.3c-6.5,23.9,9.7,39.5,30.3,38.2c4.9-0.3,8.6-3.3,12.9-5c10.5-4,17.7-11,20.2-22.2
	C316.7,1182.8,317,1178.6,315.5,1174.4z M277.6,1207c-14.4-3.8-21.7-18.2-16.2-32c4.2-10.6,12.4-16.9,22.5-21.2
	c1.4,1.5-0.3,2-0.9,2.7c-6.9,6.6-9.2,14.9-7.7,24c1.7,9.9,4.6,19.5,14.9,24.2c0.4,0.2,0.6,0.8,0.9,1.2
	C286.8,1210,282.2,1208.2,277.6,1207z"/>
<path id="XMLID_24_" class="st8" d="M1100.9,354c-14.1-7-28.5-7.8-42.5,0.2c-13.3,7.6-18.1,20.7-13.8,34.5c2,6.5,6.9,10.8,11.4,15.3
	c3,0.8,6.2,1.1,8.9,2.5c6.4,3.3,13.1,4,20.1,3.6c11.7-2.3,18-9.9,20.8-21c1.8-7,1.6-14.2,2.3-21.2
	C1108.9,361,1106.4,356.7,1100.9,354z M1094.1,398.1c-5.4,7.1-13.1,6-20.5,5.7c-1,0-1.9-0.5-2.9-0.6c-10.3-0.4-15.3-6.6-18.3-15.8
	c-3.1-9.8-0.5-17.5,6.7-24.2l0,0c9.4-8.5,29.3-10,39.8-3c1.5,1,2.8,2.1,2.9,3.9C1102.6,376.1,1101.9,387.9,1094.1,398.1z"/>
<path id="XMLID_25_" class="st31" d="M1056,404c4.3,6.2,9.8,9.8,17.8,9.1c4-0.3,7.6-1.6,11.2-3.1
	C1074.3,413.3,1065.1,408.8,1056,404z"/>
<path id="XMLID_26_" class="st31" d="M1064.9,406.5c-2.7-1.4-5.9-1.7-8.9-2.5c9.1,4.8,18.3,9.3,29.1,6
	C1078,410.5,1071.3,409.8,1064.9,406.5z"/>
<path id="XMLID_27_" class="st2" d="M1093.5,395.1c4.4-12.1-2.1-21.9-7.2-31.8c-2.9-5.5-12.3-6.3-18.3-2.7c-2.7,1.7-5.3,4-8.9,2.5
	c-7.2,6.7-9.8,14.4-6.7,24.2c2.9,9.3,8,15.4,18.3,15.8c1,0,1.9,0.5,2.9,0.6c7.4,0.3,15.1,1.4,20.5-5.7
	C1092.8,397.4,1093.1,396.3,1093.5,395.1z"/>
<path id="XMLID_282_" class="st2" d="M1620.1,411.9c-1.8,0.3-3.6,0.5-5.1-0.9C1616.8,410.8,1618.5,410.9,1620.1,411.9z"/>
<path id="XMLID_281_" class="st5" d="M548.2,418c1.5,0.9,2,2.5,2.8,3.9c-2.1,4.1-2.1,8.3-0.5,12.5c0.9,2.6,1.1,5.5,0.2,7.9
	c-2.6,7.1-0.7,15.2-4,21.8c-2.9,5.7,1.4,10.9-0.6,16.4c-1,2.7-1.4,4.9-4.4,5.8c4.1,2.7,4.3,13.1,0.3,15.8c-2.2,1.5-5,1.5-6.1-0.9
	c-2-4.2-4.7-8.2-5-13.1c-0.2-3.1-0.5-6.4,2.9-8.4c1.6-0.9,1-2.7,1-4.1c0-7.5,0.1-15,0-22.5c0-2.2-0.1-4.9,1.7-6
	c3.4-1.9,3.3-3,0.7-5.9c-3.3-3.6-1.4-7.3,3.7-8.3c2.7,4.5,1.8,9.5,1.2,14.1c-1.2,10.5-0.1,21.1-1.6,30.3c0.2,1.9,1.2,1.2,0.6,1.3
	c-0.3,0-0.7-0.3-0.7-0.5c1.1-12.4,2-24.8,3.3-37.2c0.5-5.1,1.2-10.2,1.6-15.4C545.8,422.9,545.7,420,548.2,418z"/>
<path id="XMLID_280_" class="st5" d="M476.2,534c-0.4-0.6-0.7-1.2-1.1-1.9c1.1-1.4,2.7-1.9,4.4-2.1c15.2-2,29.9-6,44.8-9.4
	c0.6-0.1,1.4-0.7,1.6-0.3c-7,1.1-14.1,2.9-21.4,3.6c-7.6,0.7-15.2,1.9-22.8,1.5c-2-0.1-4,0.2-5.6-1.4c1.1-5,5.7-6.9,9.6-3.6
	c3.7,3.1,6.2,4.1,9.5-0.6c2.1-3.1,6.5-2.1,9.8-2.7c11.7-2,23.6-2.8,35-6.6c1.4-0.5,2.9-0.4,4.4-0.6c3.3-0.4,3.8,2.1,4.4,4.4
	c0.7,2.5-0.4,4.2-3,4.8c-11.9,2.8-22.8,8.6-34.7,11.2c-8.5,1.9-17.2,3-25.9,4.5C482,535.5,479.2,533.8,476.2,534z"/>
<path id="XMLID_279_" class="st5" d="M467,393.1c3.5,0.9,6.8,1.9,10.6,1.6c5.6-0.4,8.7-3,9.2-9c-1.2-0.4-1.9,0.6-2.3,1.3
	c-3.3,6-8.4,4.2-13.4,3.2c-6.1-1.2-7.2-6.2-8.5-11c-0.7-2.4,0.8-2.3,2.5-2.2c4.3,0.1,8.6,0,12.9,0c0.6,6.4-4.5,5.6-8.5,6.3
	c5.6,4.6,7.3,4.8,12.1,0.4c2.8-2.5,5.3-2.1,8.1-0.4c3,1.8,1.9,4.3,1.4,7c-1.6,8.4-16.8,11.2-22.3,8.4
	C466.3,397.5,467.2,395.1,467,393.1z"/>
<path id="XMLID_278_" class="st32" d="M548.2,418c-1.8,16.3-3.5,32.6-5.3,48.9c-0.5,4.4-1.2,8.7-2.2,13c-1.7-15.7,0.5-31.3,0.4-46.9
	c0-0.6,0-1.2,0-1.8c0-3.4-1.7-7,0.8-10.2c0.1-1.6,0.2-3.3,0.3-4.9c1.1-1.5,0.4-3.3,0.9-4.9c1.6,1.9,3.1,3.9,4.7,5.8
	C547.9,417.3,548.1,417.6,548.2,418z"/>
<path id="XMLID_277_" class="st33" d="M476,524.1c17.5,0.6,34.7-2.3,52-4.6c-17,6.8-34.9,9.9-52.9,12.6c-1.7-2.3-3.2-4.7-4.1-7.5
	C472.7,524.5,474.3,524.3,476,524.1z"/>
<path id="XMLID_276_" class="st5" d="M439.2,383c0.6-0.3,1.2-0.7,1.7-1c3.8,3,6.2,7.4,11.3,9c2.8,0.9,3.5,4.1,2.6,6.8
	c-1.2,3.6-4.5,4.7-7.9,5c-1.4,0.1-2.9-0.2-4.4,0c-3.4,0.5-7.3,0.3-8.7-3.2c-1.3-3.3-2.2-7.4,1.3-10.5c1-0.9,0.9-2.1,0.9-3.2
	c0.3-0.3,0.5-0.6,0.8-1c1.7,0.9,1.4,2.5,1.3,4c-0.4,7.8,0.3,8.4,9,7c-2.7-1.9-7.4,0.4-8-3.9C438.7,389.1,437.1,386,439.2,383z"/>
<path id="XMLID_275_" class="st5" d="M459.7,373.2c-1.1,7.3,2.9,13,6.1,18.9c-2.5,1.7-5,1.1-6.8-0.9c-2.8-3.1-2.7-7.7-4.5-11.4
	c-0.8-1.6,1.1-4,2.5-5.7C457.9,373.8,458.8,373.5,459.7,373.2z"/>
<path id="XMLID_274_" class="st5" d="M541.9,421c0.1,3.4,0.6,6.9-0.8,10.2c-1.8-2-4.7-3.4-3.8-6.7C538,422.3,539.3,420.7,541.9,421z
	"/>
<path id="XMLID_273_" class="st4" d="M428,440c-1-0.8-1.7-1.8-1.4-3.3C428.3,437.4,427.9,438.8,428,440C428,440.1,428,440,428,440z"
	/>
<path id="XMLID_272_" class="st34" d="M439.2,383c0.2,1.3,0.5,2.6,0.4,3.9c-0.4,4.8,0.8,7.8,6.5,6.8c1.4-0.2,3.9-0.4,3.7,2
	c-0.1,1.9-2.4,2-4,2.2c-1.5,0.2-3,0.1-4.5,0.2c-3.9,0.3-5.5-1.5-5.3-5.3c0.2-2.6,0.3-5.3,0.5-7.9C437.4,384.1,438,383.3,439.2,383z"
	/>
<path id="XMLID_271_" class="st35" d="M480.8,365.6c1.5,3.3,0.8,5.3-3.2,5.7c-4.4,0.5-8.8,1.3-13.2,2.1c-1.4,0.3-2.3,0.3-2.5-1.4
	C468.2,369.5,474,366,480.8,365.6z"/>
<path id="XMLID_286_" class="st2" d="M283.8,1153.8c2.1-1.6,4.5-1.6,6.4,0c8,6.9,14.6,14.9,17.8,25.2c2.5,8-0.6,14.2-6.6,19.4
	c-3.2,2.8-6.7,5.4-10.4,7.4c-4.1-0.9-7.1-3.4-9.7-6.5c-8.2-9.9-9.9-26.7-4.1-37.6C278.8,1158.5,281.8,1156.6,283.8,1153.8z"/>
</svg>
