<?xml version="1.0" encoding="utf-8"?>
<!-- Generator: Adobe Illustrator 19.0.0, SVG Export Plug-In . SVG Version: 6.00 Build 0)  -->
<svg version="1.1" id="Layer_1" xmlns="http://www.w3.org/2000/svg" xmlns:xlink="http://www.w3.org/1999/xlink" x="0px" y="0px"
	 viewBox="0 0 1080 1080" style="enable-background:new 0 0 1080 1080;" xml:space="preserve">
<style type="text/css">
	.st0{fill:#DADADA;}
	.st1{fill:#B0CFDA;}
	.st2{fill:#DFB9A5;}
	.st3{fill:#A3C3CE;}
	.st4{fill:#B0CFD9;}
	.st5{fill:#33353F;}
	.st6{fill:#B1CFD9;}
	.st7{fill:#333640;}
	.st8{fill:#373943;}
	.st9{fill:#363842;}
	.st10{fill:#D47961;}
	.st11{fill:#D47B63;}
	.st12{fill:#692A34;}
	.st13{fill:#D37B63;}
	.st14{fill:#4D5884;}
	.st15{fill:#D57E67;}
	.st16{fill:#D37D66;}
	.st17{fill:#D37B65;}
	.st18{fill:#D47B64;}
	.st19{fill:#DADBDB;}
	.st20{fill:#D67F68;}
	.st21{fill:#D6816B;}
	.st22{fill:#D6826C;}
	.st23{fill:#4F5A85;}
	.st24{fill:#76767D;}
	.st25{fill:#5D5E65;}
	.st26{fill:#50525A;}
	.st27{fill:#CAA490;}
	.st28{fill:#692934;}
	.st29{fill:#9FB2B6;}
	.st30{fill:#4E5884;}
	.st31{fill:#4C5683;}
	.st32{fill:#CAA390;}
	.st33{fill:#623D1F;}
	.st34{fill:#643F21;}
	.st35{fill:#633E1F;}
	.st36{fill:#643E20;}
	.st37{fill:#653F21;}
	.st38{fill:#D47A63;}
	.st39{fill:#D47C65;}
	.st40{fill:#6D4628;}
	.st41{fill:#684224;}
	.st42{fill:#7D5639;}
	.st43{fill:#744E31;}
	.st44{fill:#8E684E;}
	.st45{fill:#4E5984;}
	.st46{fill:#4E5985;}
	.st47{fill:#6B4628;}
	.st48{fill:#6E492B;}
	.st49{fill:#633F22;}
	.st50{fill:#654022;}
</style>
<g id="XMLID_16_">
	<path id="XMLID_237_" class="st0" d="M702.8,326.9c24.8-9.4,49.7-18.8,74.5-28.3c29.3-11.2,58.6-22.4,87.9-33.7
		c49.3-18.9,98.6-37.8,147.9-56.6c15.3-5.9,30.7-11.7,46.1-17.6c2.7-1.1,3.7-0.5,3.6,2.4c0,0.8,0,1.7,0,2.5
		c0,57.2,0,114.3,0.1,171.5c0,4.1-1.1,6-5.2,7.5c-28.3,10.6-56.5,21.4-84.7,32.2c-28.7,11-57.4,22-86.1,32.9
		c-28.1,10.7-56.1,21.5-84.2,32.2c-16.6,6.3-33.2,12.7-49.7,19.1c-1.5,0.6-3.9,0.3-4.2,2.8c-1.5,0.8-2.9,0-4.3-0.4
		c-32.5-10.6-65.1-21.2-97.6-31.9c-2.2-0.7-4.6-1.1-6.1-3.2c0.4-6,4.2-10.7,6.9-15.7c12.2-22.8,24.5-45.7,36.6-68.6
		c5.3-10,10.7-19.9,16.1-29.8c2.3-4.2,3.5-8.1,1.8-12.7c-0.4-1.1-0.5-2.3-0.2-3.4C702.1,327.6,702.4,327.2,702.8,326.9z"/>
	<path id="XMLID_236_" class="st1" d="M680,674.7c-7.2-1.7-14.5-0.9-21.8-1.6c-18.5-1.6-37.1-2-55.6-3.4
		c-12.3-0.9-24.5-2.4-36.8-1.8c-21.2,1-42.4,2.3-63.6,3.1c-12.4,0.5-24.8,1.3-37.3,1.9c-20.9,1-41.7,2.5-62.7,3
		c-2.2,0-4.2,1.3-6.4,0.7c-0.5-1.6,0.4-2.9,1-4.3c10.1-22.8,20.9-45.3,28.9-66.1c-9.9,20.6-21,43.5-31.3,66.8
		c-0.6,1.4-1.4,2.7-2.6,3.6c-9.1-0.2-18.1,2-28.1,0.8c25.9-45.2,51.5-90,77.1-134.7c1.3,0,1.7,1,1.9,1.9c2.9,12.2,1.4,23.7-5.9,33.4
		c2.9-1.9,4.6-5.5,5.5-9.5c0.7-3.1,1.7-6.1,2.5-9.1c0.4-1.6,0.8-3.5,2.1-4.4c7.4-4.8,9.4-12.5,11.4-20.3c0.1-0.4,0.2-0.9,0.2-0.8
		c-1.3,5.3-3.1,11-6.4,16c-1.1,1.6-2.2,3.7-4.6,3.2c-2.2-0.5-2.1-2.9-2.2-4.6c-0.4-4.2-2.9-8.2-1.2-12.6c0.2-0.2,0.6-0.4,0.7-0.7
		c4.2-10.6,13.4-15,23-19.6c30.8-14.5,61.2-29.7,91.8-44.7c1.8-0.9,3.4-2,5.1-2.9c0.4-0.4,0.9-0.6,1.4-0.6c11.7,2.5,23.1,6.1,34.6,9
		c6.9,1.8,13.9,3.2,20.7,5.5c3.1,1,5.4-0.5,8-1.6c0.8-0.1,1.7,0,2.4,0.4c21.5,11.9,45.1,18.9,67.3,29.3c6.8,3.2,13.8,6,20.9,8.3
		c5.3,1.7,9.4,4.7,13.1,8.7c21.1,22.8,36.1,48.9,41.3,79.6c3.7,21.5,6.1,43.1,10.5,64.5c0.6,2.9,1.9,5.7,1.5,8.8
		c-0.2,0.5-0.5,0.9-0.9,1.2c-35-2.1-70-4.3-105-6.4c-3.8-7.8-5.5-16.4-8.9-24.4c-6.1-14.6-13.2-28.7-21.4-43.2
		c8.3,20.2,18.1,38.9,26.2,58.3C677.7,668.5,679.1,671.5,680,674.7z"/>
	<path id="XMLID_235_" class="st2" d="M702.8,326.9c0,0.4-0.1,0.7-0.1,1.1c-9.8,4.3-19.7,8.5-30.1,11.4c-0.5,0-1-0.3-1.3-0.7
		c-0.9-1.6-0.8-3.5-1.7-5.1c-7-26.4-8.4-53.1-3.8-80.2c1.5-8.9,3.2-17.7,4.7-26.6c2.3-13,0.4-25.6-3.6-37.9
		c-3.5-10.8-7.8-21.3-14.5-30.6c-2.3-3.2-4.8-5.8-8.2-7.8c-22.3-12.8-44.1-26.5-61.4-38.7c5.5,3.5,14.3,10.2,23.5,16.5
		c10.6,7.2,21.4,14.2,33.1,19.5c7.6,3.5,12.8,9.1,16.4,16.6c8.3,17.3,13.5,35.4,15,54.6c0.3,3.4-0.6,6.6-1.4,9.8
		c-5.9,22.7-8.4,45.8-7.3,69.3c0.5,10.2,3.6,20,4.5,30.1c0.2,2.2,0.6,4.3,0.6,6.5c-0.3,7.1-0.7,7.5-7.3,10c-10,3.8-20,7.8-30.1,11.5
		c-2.3,0.9-4.6,2.1-7.2,1c-1.4-0.9-2-2.2-2.5-3.7c-7.9-23.7-15.2-47.6-20.3-72.1c-0.2-1.1-0.4-2.3-0.2-3.5c0.2-1.1,0.5-2.1,1.7-2.5
		c3,2.6,3.9,6.4,5.5,9.8c3.2,6.8,6.9,13.2,10.6,19.7c1.8,3.1,3.5,6.3,5.3,9.4c-2.1-3.6-3.8-7.4-6.1-10.8
		c-8.7-18.1-15.4-36.9-19.4-56.5c-4-19.5-11-37.6-21.7-54.4c-0.3-0.6-0.8,0.6-0.3,0.1c0,0,0.1,0,0.2,0.2c5.6,8.1,9.6,17.1,12.5,26.5
		c4.8,15.3,7.8,31,11.1,46.6c-4.3,40.6-14.6,79.8-27.2,118.6c-3.1,9.6-11.1,12.7-18.7,16.6c-0.7,0.4-1.6,0.2-2.3-0.4
		c0.7-22.1,1.2-44.2,2.2-66.3c0.7-16.1,1.4-32.2,1.9-48.3c0.6-20.9,1.3-41.9,2.1-62.8c0.5-13.6,1.1-27.2,1.9-40.8
		c0.2-4.1-0.9-5-5.1-4.3c-18.2,2.8-36.4,5.1-54.6,7.6c-15.4,2.1-30.9,4.3-46.3,6.5c-0.5,0.1-1,0.3-1.5,0.4
		c-12.3,1.9-12.1,1.9-14.6,14.4c-8.1,38.9-16.3,77.8-24.4,116.8c-1.1,5-2.2,10-3.3,15.1c-0.4,2.1-0.4,4.2,0.5,6.3
		c5.9,14.1,11.8,28.2,17.7,42.3c0.7,1.7,1,4,3.6,4.3c-0.2,2.4-3.6,1.7-4,4l0-0.1c-7,11.1-16.4,20.4-23.6,31.4
		c-3.4,5.1-6.8,10.2-9.7,15.6c-0.9,1.6-1.1,4-3.8,4c-0.3-4.8-2.7-8.9-4.3-13.2c-18.4-47.4-36.9-94.8-55.5-142.1
		c-1.4-3.5-1-6.1,1-9.2C373,216.2,415,149.9,457,83.5c2-3.2,3.9-4.4,7.9-3.7c19.5,3.7,39.1,7,58.7,10.5c27.7,4.9,55.5,9.8,83.2,14.7
		c15.5,2.7,31,5.6,46.5,8.1c4,0.6,4.9,3.1,5.5,6.3c6.3,30.3,12.7,60.6,19.1,90.9c8,38.1,16,76.2,24.1,114.3
		C702.1,325.4,702.5,326.1,702.8,326.9z"/>
	<path id="XMLID_234_" class="st3" d="M159.9,525.9c0-3.8,0.4-7.7-0.2-11.5c-0.7-4.5,1.7-5.6,5.3-6.4
		c48.9-10.6,97.8-21.4,146.7-32.1c3.7-0.8,7.4-2,11-3c10.4-3.3,21.1-5.5,31.8-7.9c4.1-0.9,8.1-1.5,12.2,0c0.1,4.2,1.3,8.3,1.9,12.4
		c0.3,2.2,1.5,2.6,3.3,2.7c-1.7,2.8-4.8,2.6-7.4,3.2c-21.5,5-43.1,9.8-64.1,17c-17.3,5.9-33.9,13.6-50.4,21.3
		c29.3-13.7,59.9-23.8,91.2-31.6c6.1-1.5,12.2-3.2,18.3-4.9c1.7-0.5,3.5-1.3,5.3-0.4c3.6,5.2,2.4,11.3,3.1,16.9
		c1.6,12.7,2.5,25.5,3.9,38.2c0.8,7-0.2,13.2-4.4,19.3c-17.8,26.4-35.8,52.6-53.3,79.2c-0.9,1.4-1.7,2.9-3.2,3.8
		c-2.7-0.1-2.4-2.5-2.7-4.1c-3.1-14.8-8.1-29.1-12.4-43.5c4.9,15.2,7.2,31,11.2,46.4c0.8,3.2,1.8,6.4,2.9,9.5
		c0.4,1.1,0.9,1.8,2.2,1.2c2.4,0.9,1.8,3.1,2.3,4.8c-1.3,6.3-6,10.9-8.6,16.5c-1.3,2.8-3.8,5-4.1,8.3c-1.8,0.2-3.6,0.4-5.4,0.5
		c-24.7,0.1-49.4,2.7-74.1,3.4c-5.3,0.2-10.6,0.7-15.9,0.7c-2.9,0-3.7,1-3.1,3.9c2,9.4,3.7,18.8,5.5,28.2c-1,0.4-2,0.1-2.9-0.4
		c-7.2-4.4-14.5-8.8-18.8-16c0,1.7,3.8,3.1,1.6,6c-5.1,3.3-11,4.6-16.5,6.8c-1.9,0.8-4,0.7-5.2-1.5c-1.2-5.7-1.2-11.6-1.4-17.4
		c-0.3-10.8-0.9-21.6-1.3-32.4c-0.8-20.9-1.3-41.9-2.8-62.8c-0.5-7.1-0.3-14.3-0.7-21.4c-0.6-13.3-1.9-26.6-1.4-39.9
		C159.5,534.7,161.1,530.4,159.9,525.9z"/>
	<path id="XMLID_233_" class="st0" d="M159.9,525.9c1,0.9,1,2.1,0.9,3.2c-0.7,14.5,0.7,28.9,1.1,43.3c0.5,17.4,1.4,34.8,2.1,52.1
		c0.5,13.4,1.2,26.8,1.8,40.2c0.7,16.4,1.4,32.8,2.1,49.2c0.2,0.3,0.3,0.5,0.2,0.7c-0.1,0.2-0.2,0.3-0.3,0.3
		c-14.9,5.6-29.8,11.2-44.6,16.8c-28.8,11-57.6,22-86.4,33c-3.7,1.4-7.5,2.6-11.1,4.3c-3,1.3-3.9,0.5-3.9-2.6c0.1-6,0.1-12,0-18
		c0-1.6,0.5-3.4-1-4.7c0.5-3,3.3-3,5.3-3.9c18.7-8.3,37.5-16.4,56.3-24.5c20.9-9.1,41.8-18.2,62.7-27.3c0.8-0.3,1.5-0.6,2.6-2.2
		c-3.6,1-6.2,2.3-9,3.5C101.2,705.6,63.9,722,26.4,738c-1.7,0.7-3.4,2.3-5.6,0.9c2.1-7,0.8-14.1,0.9-21.1c0.1-4.3,1.4-8.9-1-13
		c0.2-2.4,2.3-2.6,3.9-3.3c27.8-12.1,55.6-24.2,83.4-36.2c10.4-4.5,20.8-9,31.2-13.5c1.8-0.8,3.7-1.3,5.5-3.7
		c-7.5,2.3-13.7,5.6-20.2,8.4C91.7,670.6,59,684.9,26.3,699c-1.7,0.8-3.5,2.3-5.6,0.8c2.1-7.3,0.7-14.7,0.9-22.1
		c0.1-3,1.2-6.3-1.1-9c0.2-2.1,2-2.5,3.5-3.1c27.6-12,55.2-24,82.8-36c10.8-4.7,21.8-9,32.2-14.8c-4.1,0.7-7.8,2.6-11.6,4.2
		c-34,14.9-68,29.6-102.1,44.4c-1.5,0.6-3,1.7-4.6,0.4c1.3-2,1-4.2,1-6.3c0-21.5,0.2-43-0.1-64.4c-0.1-4.5,1.5-6.4,5.4-7.9
		c25.8-9.7,51.5-19.5,77.2-29.3c16-6.1,31.9-12.2,47.9-18.2C159.6,534.8,159.6,534.8,159.9,525.9z"/>
	<path id="XMLID_232_" class="st4" d="M641,457.9c24.2,8,48.4,15.9,72.6,24.1c11.8,4,23.9,6.9,35.3,11.9c10.5,2.6,20.5,6.6,30.8,9.9
		c16.9,5.5,33.8,11,50.7,16.4c3,1,4.3,2.3,4.6,5.9c1.7,18.8,3.4,37.6,5,56.4c1.6,18.6,3.4,37.3,5,55.9c1.9,22.4,4.1,44.9,6,67.3
		c1.5,18.5,3.7,36.9,4.9,55.4c0.2,3.5,1,6.9,1,10.4c0,2.6-0.9,3.6-3.5,3.3c-14.4-1.5-28.8-2.3-43.2-3c-9.1-0.4-18.2-1.4-27.3-1.9
		c-3.4-0.2-3.4-2-2.9-4.3c3.8-18.1,7.7-36.3,11.5-54.4c1.8-8.6,3.4-17.2,5.4-25.8c0.8-3.3-0.3-3.6-3.1-3.7c-2.8-0.1-5.7,0.9-8.3-0.7
		c0,0,0.3-0.4,0.3-0.4c0.7-0.8,0.9-1.7,0.6-2.8c-4.3-19.5-6.7-39.3-9.4-59c-2.3-17-6.2-33.7-13.2-49.5c-5.4-12.1-13-22.8-21.7-32.7
		c-2.1-2.4-4.7-4.3-6.5-6.9c-5.6-8.1-14.8-11.1-22.9-15.3c-19.6-10.3-40.6-17.6-61.5-24.8c-7.4-2.5-14.5-5.9-21.4-9.4
		c-1.1-0.9-1-2.2-0.4-3.2c3.7-6.3,6-13.3,10.8-18.9C640.5,458.1,640.7,458,641,457.9z"/>
	<path id="XMLID_231_" class="st5" d="M762.5,700.3c-19.2-1.5-38,0.2-56.8-1.1c-28.2-2.1-56.5-3.7-84.8-5.7
		c-39.3-2.7-78.6-3.3-117.9-2.1c-47,1.4-93.9,3.2-140.9,4.7c-39,1.3-77.9,2.4-116.9,3.5c-5.8,0.2-11.7,0.6-17.5,0.1
		c-4.8-0.4-4.6,1.5-3.7,5c11.4,45.3,22.7,90.7,34.1,136.1c8.8,34.7,14.8,70,20.5,105.3c1.8,11.2,4.4,22.2,6.6,33.3
		c0.6,3.1,1.1,6.2,0.5,9.7c-2.4-0.8-2.5-3.1-3.1-4.7c-7-19.6-10.2-39.9-13.3-60.4c-5.8-38.1-15.1-75.4-24.2-112.7
		c-8.5-34.8-16.9-69.5-24.2-104.6c-2-9.6-1.6-9.7,8-10.2c33.9-1.9,67.9-2.5,101.9-3.9c49.1-2,98.2-4.4,147.3-6.3
		c50.1-2,100.3-2.2,150.3,1.5c26.1,1.9,52.1,3.7,78.1,6.3c4.8,0.5,9.7,0.7,14.3,1.9c11.7,3.1,23.6-0.1,35.3,1.8
		C758.4,698.1,760.6,698.2,762.5,700.3z"/>
	<path id="XMLID_230_" class="st6" d="M310.7,642.1c4.8-9.5,11.3-17.9,17.2-26.7c12.9-19.5,25.9-39,39.3-58.2c3.8-5.5,4-11.1,3.5-17
		c-1.2-13-2.5-26-3.9-38.9c-0.6-5.4-1.3-10.8-2-16.2c1.2-1.8,2.7-2.8,5-2.1c3,19.4,5.4,38.9,9.7,58c1.4,3.6-0.8,7-0.9,10.5
		c0,1.1-0.3,2,1.3,1.4c2.5,2.2,1.6,4.8,0.6,7.3c-8.1,20.7-16.3,41.4-24.5,62.1c-6.8,17.5-13.7,34.9-20.3,52.5
		c-1.4,3.8-3.3,5.5-7.6,5.3c-7.8-0.4-15.5,1.6-23.4,0.8c-0.8-2.6,1-4.4,2.1-6.4c15.6-27.4,33.2-53.5,49.8-80.2
		c4.8-7.8,9.5-15.7,13.9-24.8c-11.1,14.9-19.6,30.3-29.2,45c-8.6,13.1-17,26.3-25.1,39.7c-0.7,1.1-1.4,2.3-2.7,2.8
		c-1.6-1.3,0-3.7-1.7-5C309.6,648.9,308.6,645.7,310.7,642.1z"/>
	<path id="XMLID_229_" class="st5" d="M291.8,1008.4c30.3-0.8,60.2-4.7,90.3-6.3c51.1-2.7,102.2-3.3,153.4-1.3
		c29.6,1.1,59.2,2.2,88.8,4.2c13.6,0.9,27.2,2.1,40.9,2.8c10.4,0.6,20.8,1.6,31.3-0.2c-4,3.4-9,3.7-13.9,4.3
		c-13,1.6-26,0.8-38.9,0.5c-72.5-1.7-144.9-4.9-217.4-3.6c-41.8,0.8-83.6,1.3-125.4,1.8C297.7,1010.7,294.4,1010.8,291.8,1008.4z"/>
	<path id="XMLID_228_" class="st7" d="M709.8,999.8c17.6-100.3,31.8-200.9,58-298.9c1.9,2.7,1,6.3,0.4,9.6
		c-3.1,18.2-6.1,36.4-9.8,54.6c-12.1,60.6-21.8,121.6-32.7,182.4c-3,16.7-6.6,33.3-13.3,49.1C712,997.6,711.9,999.1,709.8,999.8z"/>
	<path id="XMLID_227_" class="st8" d="M290.4,1036.4c1.3-2,3.3-1.3,5-1.3c76.5-1.9,152.9-2.1,229.4-2.8c43.8-0.4,87.6-2,131.4-3.2
		c15.5-0.4,31-0.4,46.5,0.2c3.8,0.1,5.9-0.4,5.4-5c-0.3-2.8,0.4-5.6,0.6-8.5c0.1-0.9,0.6-1.7,1.5-1.8c0.9,0,1.6,0.7,1.6,1.6
		c0.5,5.3,1,10.6,1.4,15.9c0.1,1-0.4,2-1.6,2.3c-1.2,0.3-2-0.4-2.4-1.3c-0.7-2-2.1-1.6-3.7-1.4c-26.4,2.4-52.9,1.7-79.4,2.7
		c-98.4,3.7-196.9,2.2-295.4,3.1c-11.7,0.1-23.3,0.1-35,0C294.1,1037,292.2,1037.4,290.4,1036.4z"/>
	<path id="XMLID_226_" class="st9" d="M696.6,706c-80.3-2.7-160.6-4-240.9-3.1c-50.1,0.6-100.2,3.4-150.3,5.5
		c-19.5,0.8-38.9,2.1-58.4,1.6c-1.8,0-3.7,0.3-6.1-1.2c158.3-11,316-13.5,473.7-3.9c0.1,1.1-0.6,1.4-1.5,1.3
		C707.7,706.2,702.1,706.8,696.6,706z"/>
	<path id="XMLID_225_" class="st4" d="M167.7,714.9c0-0.4,0.1-0.7,0.1-1.1c6.5-0.4,11.8-4.3,17.8-5.9c1.1-0.3,2.2-0.7,3.3-1.1
		c2.1-0.3,2.7,1.5,3.8,2.7c5,5.4,10.2,10.6,17.2,13.4c0.9,5,1.8,10.1,2.8,15.1c-0.7,2.7,1,5.9-2.1,8c-12.4,2.5-24.9,5-37.3,7.6
		c-2.8,0.6-3.4-0.5-3.6-3c-0.7-7.8-1-15.5-1-23.3C168.7,723.2,168.1,719,167.7,714.9z"/>
	<path id="XMLID_224_" class="st10" d="M601.4,275.8c-0.3,0.6-0.5,1.3-0.8,1.9c-2,0.4-0.9-1.4-1.4-2c-0.2,1.3,0.4,2.6,0.1,3.9
		c-1.9,14.7-2.4,29.5-4.9,44.1c-2.9,16.3-6.8,32.2-12.4,47.7c-2.4,5.5-4.2,11.2-6.6,16.6c-2.4,5.3-6.6,9-11.8,11.5
		c-4.7,3.2-8.9,7.4-14.8,8.5c-15.7,7.5-31.1,16.1-49.4,14.1c17.9-5.1,34.5-13.4,51.4-21.1c5.7-2,10.6-5.5,15.5-8.8
		c1.8-1.2,2.6-3.1,3.2-5c10-30.9,19.4-62,24.3-94.3c1.4-9,2.7-18,4-27C601.5,268.3,602.2,271.8,601.4,275.8z"/>
	<path id="XMLID_223_" class="st11" d="M379.9,552.9c-0.5,1.1,0.3,3.1-1.9,2.8c-1.7-0.2-1.3-1.8-1.1-2.8c0.8-4,1.7-7.9,2.6-11.8
		c2-11.1,3.1-22.3,3.4-33.6c0.1-6,0.4-12,0.5-17.9c0.1-4.8,0.6-9.5-1.8-14.1c-1.8-3.5-0.9-7.5,0.4-11.2c2.1-6,4.9-11.6,7.8-17.2
		c7.2-13.2,15.5-25.5,25.1-37.1c3.9-4.7,8-9.3,12-14c-1.9,5.8-6,10.3-8.9,15.4c-9.3,16-18.8,31.8-28.4,47.5
		c-4.1,6.8-5.8,13.4-4.5,21.7C388.7,504.9,387.8,529.2,379.9,552.9z"/>
	<path id="XMLID_222_" class="st2" d="M548.8,407.9c4.6-3,9.3-6.1,13.9-9.1c2.8-0.1,3,2,3.3,3.9c0.7,4,1.3,8.1,1.6,12.2
		c-0.6,4.8-5.2,5.9-8.2,8.6c2.7,0.4,4.8-1.8,7.3-1.2c3,1.7,2.2,4.5,2,7.1c-3.3,5.8-8.6,7.1-13.6,6.8c3.5,0.7,3.9,0.7,8.5-0.8
		c1.6-0.5,3.1-1.4,4.8-0.7c3.6,4.6,4.2,12.6,1.2,16.1c-5.6,1-9.7-2.6-14.4-4.6c-2-0.9-3.8-2.1-5.6-3.2c-0.4-0.3-0.8-0.6-1.3-0.8
		c2.6-9,0.4-18.3,1.9-27.3C550.8,412.6,552.6,409.4,548.8,407.9z"/>
	<path id="XMLID_221_" class="st12" d="M20.8,738.9c23.4-10,46.7-20.1,70.1-30.2c17.9-7.7,35.7-15.5,53.6-23.2
		c1.6-0.7,3.9-3.1,5.1-1c1.6,2.9-1.5,3.7-3.6,4.6C122.3,699.5,98.6,709.7,75,720c-18.1,7.9-36.2,15.9-54.3,23.8
		c-2.3,0.9-4.6,1.8-6.9,2.7c-1.1,0.4-2.4,0.8-3.1-0.5c-0.8-1.6,0.3-2.4,1.6-3.1C15.2,741.6,18,740.3,20.8,738.9z"/>
	<path id="XMLID_220_" class="st12" d="M20.8,699.9c26.7-11.5,53.4-23,80-34.6c13.9-6,27.7-12.1,41.6-18c1.3-0.5,3-2.7,4.2-0.5
		c1.4,2.5-0.9,3.3-2.8,4.2c-34.6,15-69.2,30-103.8,45.1c-6.5,2.8-13,5.8-19.5,8.7c-2.1,0.8-4.3,1.6-6.4,2.4
		c-1.3,0.5-2.6,1.2-3.4-0.4c-0.9-1.9,0.6-2.6,2-3.2C15.5,702.4,18.1,701.1,20.8,699.9z"/>
	<path id="XMLID_219_" class="st13" d="M313.6,656.9c7.5-13,15.7-25.5,23.8-38.1c9.5-14.8,19-29.7,28.4-44.6
		c1.7-2.6,4.4-4.3,5.5-7.4c2.1,1.9,0.7,2.9,0.2,4c-9,18.3-20.5,35-31.3,52.2c-12.1,19.1-24.4,38.1-35.3,58c-1,0.2-2.1,0.3-3.1,0.5
		c-2.7-1.4-0.4-2.8,0.2-3.9C305.7,670.5,309.7,663.7,313.6,656.9z"/>
	<path id="XMLID_218_" class="st12" d="M20.8,663.8c27.3-11.8,54.6-23.5,81.9-35.3c11.3-4.9,22.5-9.8,33.8-14.6
		c1.4-0.6,3.5-2.8,4.6-0.8c1.4,2.4-1,3.6-3.2,4.5C123,624,108,630.5,93.1,637c-24.2,10.6-48.3,21.2-72.5,31.8
		c-2.1,0.8-4.3,1.6-6.4,2.4c-1.3,0.5-2.6,1.2-3.4-0.4c-0.9-1.9,0.6-2.6,2-3.2C15.5,666.4,18.1,665.1,20.8,663.8z"/>
	<path id="XMLID_217_" class="st11" d="M210.6,746c0.9-2.6,0.7-5.5,2.1-8c1.7,5.2,1.3,10.5,1.2,15.8c-0.8,29-0.6,57.9,4.7,86.6
		c0.3,1.4,0,2.9,0,5.6c-5.2-15-8.6-29.1-9.9-43.8C207,783.4,208.8,764.7,210.6,746z"/>
	<path id="XMLID_216_" class="st14" d="M369.8,483c-1.7,0.7-3.3,1.4-5,2c-39.5,10-78.7,21-116,38c-0.2-0.4-0.4-0.8-0.6-1.2
		c3-1.6,6.1-3.2,9.1-4.8c31.1-15.9,64.2-25.7,98.1-33c5.5-1.2,10.9-2.6,16.4-3.9c1.1-0.1,2.2-0.2,3.8-0.3
		C374.2,482.5,371.4,481.7,369.8,483z"/>
	<path id="XMLID_215_" class="st15" d="M414,438.1c13.9-4.5,27.7-8.2,42.4-8.1c4.8,0,7.2,3,9.6,6.2c5.7,7.7,9.1,16.6,12.7,25.3
		c0.8,2,1.5,4.1,2.2,6.1c3.6,10.1-1.8,17.9-6.3,25.9c1.3-6.8,3.8-13.4,4.4-20.4c0.1-1.1,0.7-2.2,0-3.4
		c-6.6-10.6-10.6-22.6-17.4-33.1c-2.7-4.1-5.5-5.3-10.3-4.2c-9.9,2.4-19.8,4.2-29.8,6.2C419.1,439.1,416.5,439.6,414,438.1z"/>
	<path id="XMLID_214_" class="st16" d="M444.1,536c1.1,5.5,2.2,11,3.4,17.5c6.9-7,8.6-15.7,11.6-24.3c1.4,8.9-3.4,20.7-9.8,25.5
		c-4.6,3.5-4.3,9.1-5.4,13.9c-1.8,7.3-5.3,11.5-11.8,12c11.9-10.6,12.5-23.7,8.9-37.8c-0.2-2.1-0.2-4.3-0.8-6.4
		c-1.7-6.6,0.2-13.7-2.4-20.2c-0.3-0.9-0.1-2,0-3c0.2-1.8,0.9-3.6,2.8-3.7c2.3-0.2,2.4,2,2.4,3.6c0.1,3.1,0.5,6.5-0.3,9.4
		C441.3,527.4,442.1,531.7,444.1,536z"/>
	<path id="XMLID_213_" class="st2" d="M548.5,442c0.3-0.1,0.6-0.1,0.9-0.2c5.6,4.5,11.6,8.1,18.4,10.5c1.7,0.6,3.6,0.9,4.6,2.7
		c0.7,2.4,1.6,4.8,0.9,7.4c-1.6,2.2-3.6,1-5.4,0.4c-4.5-1.5-8.6-3.9-11.9-6.3c3.3,4,9.3,5.5,12.9,10.2c-0.7,1.2-1.9,1.4-3.1,1.3
		c-0.4,0-0.7,0-1.1,0c-4-1-8-2.2-12-3c-3.4-0.6-4.1-2.5-4-5.6C548.8,453.6,549.3,447.8,548.5,442z"/>
	<path id="XMLID_212_" class="st17" d="M391.9,676.7c3.8-11.4,9.6-21.9,14.6-32.8c6.7-14.5,13.7-28.9,20.7-43.3
		c0.3-0.5,0.8-1,2.1-2.5c-1.1,6.2-3.3,10.7-5,15.2c-8.2,20.9-18.2,41.1-27.2,61.7c-0.3,0.6-0.8,1.1-1.1,1.6
		C394.5,676.7,393.2,676.7,391.9,676.7z"/>
	<path id="XMLID_211_" class="st14" d="M680,674.7c-2.7-2.3-3.2-5.8-4.5-8.7c-8.5-18.6-16.8-37.2-25.2-55.9c-0.7-1.5-1.3-3-2.2-5.2
		c2.6,0.9,3.6,2.6,4.6,4.2c12.2,20.1,21.7,41.5,28.1,64.1c0.1,0.4-0.1,1-0.2,1.5c0,0-0.3,0-0.3,0L680,674.7z"/>
	<path id="XMLID_210_" class="st18" d="M247.2,910.6c-21.6-9.8-35.5-33.8-31-57.7c1,5.9,1.5,11.6,2.9,17c3.6,14,12.3,24.5,23.9,32.8
		C246.6,905.2,246.6,905.1,247.2,910.6z"/>
	<path id="XMLID_209_" class="st15" d="M470.8,496.8c-3.2-10.4-6.7-20.8-9.5-31.3c-0.9-3.2-2.2-3.8-5-3.8c-11.6,0-23.3,1.3-34.9-0.7
		c-1-0.2-2-0.3-2.9-0.5c-0.8-0.2-1.6-0.5-1.4-1.6c0.1-0.8,0.8-0.9,1.5-1c0.3-0.1,0.7-0.1,1-0.1c12.4,1.7,25-0.1,37.4,2
		c2.2,0.4,4,1.2,5.4,3.1C469.3,473.1,471.7,484.5,470.8,496.8z"/>
	<path id="XMLID_208_" class="st11" d="M426.8,396c-0.4-3.1,2.7-2.6,4-4c15.6-5,30.1-1.6,43.3,7c6.1,4,10.1,10.4,11.6,18.5
		c-3.2-1.5-4.1-4.1-5.1-6.4c-3.2-7.3-8.9-11.1-16.2-13.5c-10.1-3.4-20.4-4.6-31-3.7C431,394.1,428.8,394.8,426.8,396z"/>
	<path id="XMLID_207_" class="st19" d="M366.7,464.9c-11.6,0.2-22.5,4.4-33.7,6.4c-3.4,0.6-6.7,1.8-10.2,1.6
		c11.7-5.8,24.3-9.4,36.3-14.6c1.7-0.7,3.5,0,3.4,1.6C362.2,463.3,364.8,463.7,366.7,464.9z"/>
	<path id="XMLID_206_" class="st20" d="M430.3,429.3c2.1-6.2,6.2-11.2,9.8-16.5c0.2-0.4,0.8-0.7,1.2-0.7c7.6,0.1,15.1-2.9,22.8-0.9
		c5.1,1.4,9.6,4,12.8,8.2c2.8,3.7,5.3,4,8.3,0.7c0.4-0.5,1-0.9,1.7-0.3c-2.2,5.1-5.1,6.3-9,2.8c-10-8.7-21.7-9.8-34.1-8.6
		c-2.1,0.2-2.8,1.5-3.6,2.9C437.4,421.4,434.4,425.8,430.3,429.3z"/>
	<path id="XMLID_205_" class="st21" d="M407.7,480.4c10.4-2.1,36.6-0.3,42.8,2.7C439.3,485.4,414.4,484,407.7,480.4z"/>
	<path id="XMLID_204_" class="st22" d="M461.6,515.2c-6.1-10-6.1-21.5-8.2-32.6C460.7,492.4,460.9,503.9,461.6,515.2z"/>
	<path id="XMLID_203_" class="st23" d="M209.9,722.9c-0.7,2.6-2,0.7-2.8,0.2c-7.2-4.2-13.1-9.7-18.2-16.3c-0.3-2.3-2.8-3.7-2.7-6.7
		c6.6,7.6,14.2,13.2,22.5,17.9C209.1,719.7,209.5,721.3,209.9,722.9z"/>
	<path id="XMLID_202_" class="st24" d="M696.6,706c6-1.2,12.1,1,18.1-1c6.1-0.6,12.2,0.5,18.2,1.5
		C720.8,706.7,708.7,707.6,696.6,706z"/>
	<path id="XMLID_201_" class="st25" d="M289.4,1032.2c-1.8-5.2-3.1-10.4-1.4-15.8C288.9,1021.6,291.6,1026.7,289.4,1032.2z"/>
	<path id="XMLID_200_" class="st26" d="M291.7,1001.8c-3.3-0.5-4.7-2.4-6.3-4c-0.9-0.9-1.5-1.9-0.5-3c1.1-1.1,2.2-0.3,3.1,0.4
		C290,996.7,291.1,998.7,291.7,1001.8z"/>
	<path id="XMLID_199_" class="st27" d="M671.7,339c9-3.5,18.1-7.1,27.2-10.6c1.2-0.5,2.6-0.4,3.9-0.5c5.2,11.2-2.6,19.3-7.1,27.9
		c-12,23-24.4,45.8-36.7,68.6c-6,11.1-11.9,22.3-17.9,33.4c0,0-0.2,0-0.2,0c-3.2,1.3-5.7-0.2-8.2-2c-0.3-1.3,0.3-2.3,1.1-3.2
		c15.3-17.9,23-39.5,29.9-61.5c4.8-15.2,8-30.6,6.9-46.6C670.3,342.8,670.1,340.7,671.7,339z"/>
	<path id="XMLID_198_" class="st28" d="M694.2,447.3c0.9-1.7,2.7-1.8,4.2-2.5c105.7-46,211.5-91.9,317.2-137.8c2.3-1,5.8-4.4,7.3-1
		c1.5,3.4-3.5,3.6-5.7,4.6c-104.9,45.7-209.9,91.3-314.9,136.9C699.6,448.7,696.9,450.3,694.2,447.3z"/>
	<path id="XMLID_197_" class="st28" d="M704.7,407.1c0.4-4.6,3.6-5.7,6.6-7c49.4-21.5,98.9-42.9,148.3-64.4
		c52.3-22.7,104.7-45.5,157-68.2c2-0.9,5-3.7,6.4-0.5c1.2,2.8-2.8,3.1-4.7,3.9c-103,44.8-206,89.5-309,134.3
		C708,405.9,706.5,406.4,704.7,407.1z"/>
	<path id="XMLID_196_" class="st28" d="M729.6,360.2c0.7-4.2,3.3-5.6,6.3-6.8c41.5-18,83-36,124.5-54.1
		c52.2-22.7,104.3-45.3,156.5-67.9c1.9-0.8,4.8-3.4,6.1-0.6c1.5,3.1-2.5,3.3-4.3,4.1c-94.2,41-188.5,82-282.8,122.9
		C734,358.6,732,359.3,729.6,360.2z"/>
	<path id="XMLID_195_" class="st29" d="M632.9,455.9c2.6,0.7,5.3,1.4,7.9,2.1c-3.7,7.2-7.4,14.5-11,21.7c0.6,0.4,0.6,0.8,0,1.2
		c-2.4,3.4-5.4,3.2-9.1,2.2c-17.6-4.9-35.3-9.5-53-14.2c-0.6-0.2-1.1-0.6-1.7-0.8c1-0.4,2-0.8,3-1.2c1.1-0.8,2.2-0.6,3.3-0.2
		c14,4.4,26.8,1,39-6.1c0.7-0.4,1.5-0.7,2.9-1.8c-10.8,6.9-22,7.9-33.5,7.4c-1.8-0.1-3.6-0.4-4.9-2c-0.4-2.5,1.8-3,3.2-3.7
		c7.8-4,15.7-7.9,23.6-11.8c3.8-1.9,7.6-2.2,11.5-0.5c4.7,2,9.9,2.7,14.5,5.1c1.4,2.4-0.7,3.6-1.9,5c-2.1,2.4-4.7,4.1-7.5,5.5
		c3.5-1.5,6.3-4.1,9.5-6.1C629.9,456.8,630.9,455.1,632.9,455.9z"/>
	<path id="XMLID_194_" class="st30" d="M629.7,480.9c0-0.4,0-0.8,0-1.2c26.1,11.6,53.8,19.2,79.8,31.4c31,14.5,49,39.3,60.2,70.2
		c6.4,17.8,8.6,36.5,11,55.1c1.7,13.5,4.4,26.9,6.6,40.4c0.2,1.4,2.1,3.7-1.4,4c-5.6-23.8-8.7-48.1-12.5-72.3
		c-4.3-27.7-17-51.9-34.9-73.6c-6.9-8.3-14.7-14-25-17.9c-24.4-9.3-48.3-19.9-72.4-30C637.2,485.3,633.5,482.9,629.7,480.9z"/>
	<path id="XMLID_193_" class="st31" d="M552.8,544.9c2.5-6.5,7.2-11.9,10.3-18.1c5.6-11.1,10.3-22.4,10.2-35.2
		c-2.3,4-4.4,8.2-6.9,12.1c-17.9,27.1-42.5,41.6-75.5,40.3c-6.2-0.2-12.2-1.4-17.9-5.3c23.3,4.3,44.2-2,63.1-13.4
		c19.4-11.7,33.6-28.2,36.8-52c4.6,10.4,4.8,20.7,2.1,31.3c-3.7,14.7-11.5,27.2-20.4,39.1C554.2,544.2,553.7,544.9,552.8,544.9
		L552.8,544.9z"/>
	<path id="XMLID_192_" class="st31" d="M552.7,544.9c-0.2,0.6-0.2,1.3-0.6,1.8c-0.4,0.6-1.1,1.1-2.4,2.3
		C550.7,546.6,551.3,545.4,552.7,544.9C552.8,544.9,552.7,544.9,552.7,544.9z"/>
	<path id="XMLID_191_" class="st32" d="M628.9,454c-4.9-1.5-10-2.6-14.7-4.6c-4.3-1.8-8-1.3-11.9,0.7c-8.8,4.6-17.7,9.1-26.6,13.7
		c-1.3,0.9-2.5,1.4-2.9-0.9c-0.1-2.7-1.5-5.2-1-8c2.3-2.1,5.4-0.9,8-1.7c1.7-0.5,3.5-0.7,4.7-1.7c-4.2,1.2-8.6,0.8-13,0.6
		c-1.2-0.1-2.8-0.2-2.8-2.1c0.8-0.2,2-0.5,1.9-1.2c-1.1-4.6,0.7-9.8-2.9-13.9c0-4.2,4.6-4.6,6.1-7.4c-1.8,1.1-3,3.7-5.9,2.7
		c-0.8-2.3,1.6-5.6-2-7.2c-0.2-2.6,2.1-3.6,3.5-4.9c7.3-6.3,9.1-14.2,7.3-23.7c-1.1,4.6-1.9,8.9-3,13.1c-1,3.6-2.1,7.7-7,8.2
		c-0.6-4.1-1.4-8.3-1.9-12.4c-0.2-1.8-0.2-3.6-2.1-4.5c5.8-3.3,10.8-7.5,12.9-14.1c1.4-4.4,3.3-8.6,5-12.9
		c11.2-3.4,22-8.1,32.9-12.1c1.8-0.7,2.8-2.3,4.4-3.1c1.4,0.3,1.7,1.4,2.1,2.5c2.7,7.8,5,15.7,6.7,23.3c-1.1-6.7-1.9-13.9-4.1-20.9
		c-0.5-1.5-1.3-3.2,0.2-4.6c11.3-2.8,21.7-8,32.5-11.8c1.2-0.4,2.4-1.1,3.7-1.3c5-1,7.4-3.8,6.7-9c2.2,0.5,1.9,2.4,2.2,4
		c1.8,12,1.2,23.9-1.7,35.7c-5.6,22.9-12.9,45.1-25.1,65.5c-2.3,3.9-4.8,7.6-7.6,11.1C632.4,452.4,631.3,454.2,628.9,454z"/>
	<path id="XMLID_190_" class="st33" d="M628.9,454c9.5-9.6,15.6-21.4,20.9-33.6c8.2-18.8,14.5-38.2,17.3-58.5
		c1.3-9.1,0.4-18.2-1.3-27.2c-0.6-9.2-2.9-18.1-4.1-27.1c-3.1-22.6-2.2-45.1,3.8-66.9c8.4-30.7-1.6-57.3-15.4-83.6
		c-1.2-2.2-2.8-4-5.3-5.1c-23-10-42.9-24.7-63-39.4c-2.3-1.7-4.6-3.3-7.3-5.2c2.2-0.7,3.4,0.5,4.6,1.3
		c22.8,14.4,45.7,28.8,68.5,43.1c3.4,2.1,5.6,5.3,7.6,8.5c11.1,18.2,18.4,37.8,17.4,59.5c-0.5,10.8-3.4,21.4-5.3,32
		c-3.2,17.2-3.5,34.5-2.4,51.8c0.7,10.2,3.8,20.2,5.8,30.3c1,1.6-0.2,3.5,0.8,5.1c0,0,0,0,0,0c2.6,36.2-10,68.3-26.2,99.5
		c-3.3,6.4-7.8,12-12.6,17.3c-5,3.6-9.6,7.9-16.1,8.9C621.1,461.4,625.8,458.6,628.9,454z"/>
	<path id="XMLID_189_" class="st34" d="M411.1,252.1c-2.3,7.7-6.9,11.7-12.5,14.7c-8.1,4.4-16.8,7.3-25.7,9.6
		c-2.9,0.8-4.2,2.3-5.2,4.6c-5.7,12.3-7,25.3-5.7,38.6c2.2,24.2,9.9,46.8,20.6,68.5c0.4,0.9,0.8,1.9,2,2.2c-0.5-4.5-2.2-8.9,0-13.5
		c1.7,7.7,3.4,15.4,5.2,23c-9.6-9.5-15.6-21-20.5-33.1c-7.5-18.7-12.4-38-11.5-58.4c0.4-10.1,2.2-19.9,7.6-28.6
		c1.7-2.7,4-4.1,7.2-5.6c10.8-4.7,22-8.7,31.9-15.3C406.7,257.6,408.3,255.1,411.1,252.1z"/>
	<path id="XMLID_188_" class="st34" d="M411.1,244.9c-3-2.9-3.8-5.6-4.8-8.2c-1.7-4.7-2.8-9.6-4.7-14.2c-3.6-8.9-2.3-17.4,0.7-26.1
		c6.4-18.3,17.2-34.1,28.1-49.9c5.3-7.6,12.1-14.2,15.6-23.1c0.7-1.8,1.2-1.8,3.8-2.4c-8.4,15.7-8.9,31.9-2.6,48.4
		c-3.3-1.1-4-1.7-5.2-5.7c-3-9.5-2.1-19.1-0.2-28.8c-1.8,0.4-2,2-2.8,3c-0.8,1-1.5,2.2-2.2,3.4c-11,19.2-23.5,37.6-31.6,58.4
		c-2.2,5.7-3.5,10.8-0.7,17.1C408.3,225.3,409.9,234.6,411.1,244.9z"/>
	<path id="XMLID_187_" class="st35" d="M601.4,275.8c-0.8-3.4-2-6.8-3.6-9.9c-6.1-25.7-10.1-52-24.1-75.2c5.6,4.8,17.2,26.7,20,37.7
		c5.3,20.4,9.2,41.3,17.7,60.8c2.1,4.9,4.1,9.8,6.2,14.7c0.7,1.2,0.7,2-1,2C610.5,296.5,605.3,286.5,601.4,275.8z"/>
	<path id="XMLID_186_" class="st36" d="M599.2,131.8c-7.8-1.7-15.3-4.1-23.2-5.4c-14.7-2.5-29.2-2.1-43.3,2.9
		c-12.6,4.4-23.4,11.2-30.3,23.1c-0.6,1-1.1,3-2.7,2.4c-1.8-0.8-0.8-2.6-0.3-3.9c4.2-10.3,12.5-16.7,22-21.6
		c20.7-10.6,42.1-11.2,63.9-3.5C590,127.4,595,128.5,599.2,131.8z"/>
	<path id="XMLID_185_" class="st37" d="M622.9,356.9c2.4,9.9,6,19.7,3.8,30.2c-2.2-10.4-5.2-20.4-8.8-30.3c-1.6-0.9-2-2.6-2.5-4.2
		c-7.1-20.2-12.9-40.8-16.4-61.9c-0.7-3.9-0.5-7.8-0.3-11.8c0.1-1.3,0.2-2.6,0.3-4.3c0.7,1.3,1.2,2.2,1.7,3.2
		c1.7,11.7,5.1,23,8.2,34.4C612.9,327.2,617.6,342.1,622.9,356.9z"/>
	<path id="XMLID_184_" class="st38" d="M404,303c-1.6,13.5-4.6,26.7-4.4,40.5c0.1,8.8,1.9,17.1,5.2,25.1c3.7,9.1,7.6,18.3,14.4,26.9
		c-4.2-1.1-6.3-3.4-7.9-6c-10.5-16.2-18.3-33.2-16.4-53.2c0.4-4.3,1-8.5,1.5-12.8c0.3-2.3,1.2-4.6-0.3-6.7c0.4-5.7,3.7-10,7.3-14.1
		C403.5,302.8,403.7,302.9,404,303z"/>
	<path id="XMLID_183_" class="st34" d="M531.9,167.7c22.9-9.3,81.8,23.1,98.3,53.6c-13.2-13.8-27.7-26.1-44.1-36
		C569.6,175.4,551.5,170.1,531.9,167.7z"/>
	<path id="XMLID_182_" class="st34" d="M526.8,102.2c-15.3-1.6-30.1,0.2-44.2,6.9c-9.3,4.4-16.9,10.9-19.4,21.4
		c-2.2,9.1-0.6,17.6,7.4,23.9c-3.1,0.1-3.9-0.1-5.9-2.1c-7.3-7.2-7.8-15.9-5-25c3-9.6,9.8-16.1,18.4-20.7
		C493.7,98.2,509.9,97.1,526.8,102.2z"/>
	<path id="XMLID_181_" class="st39" d="M410.7,259.8c2.8-12.6,7.2-24.7,12-36.8c-1.7,6.7-3.2,13.4-5.1,20
		c-5.5,19.3-9.6,38.9-12.9,58.6c-0.1,0.5-0.4,0.9-0.6,1.3c0,0-0.3-0.2-0.3-0.2c-1.6-0.7-2.1,2.1-3.8,1.3c0.8-8.5,3.1-16.7,5.1-25
		c0.5-2.1,1-4.1,0.9-6.3c-0.6-3,2.2-4.7,2.9-7.1C409.3,263.7,411.3,262.2,410.7,259.8z"/>
	<path id="XMLID_180_" class="st40" d="M410.7,259.8c2.1,3-0.8,5-1.7,7.4c-0.7,2-2.1,3.7-3.1,5.5c-8,9.3-18.2,16.6-25.5,26.7
		c-7.1,9.7-12.3,20.1-13.8,32.9c-1.3-5-1.2-7.3,0.8-13.9c4.7-15.8,14.7-27.8,27.2-37.9C401.7,274.8,406.8,267.9,410.7,259.8z"/>
	<path id="XMLID_179_" class="st41" d="M399.8,304.1c0.8-0.7,1.5-1.5,2.3-2.2c1.4-1.2,1.4,0,1.5,1c-2.5,4.7-5.1,9.3-7.6,14
		c-1.7,2.5-3.3,5-5.1,7.4c-7.6,9.5-11.4,20.5-12.5,32.6c-1.6-13.3,2.1-25.1,10-35.8C392.4,315.5,396.8,310.3,399.8,304.1z"/>
	<path id="XMLID_178_" class="st42" d="M650.1,274.7c-4.2-9-8.4-18.1-12.6-27.1c0.4-0.2,0.8-0.3,1.1-0.5
		C644.1,255.5,648.5,264.4,650.1,274.7z"/>
	<path id="XMLID_177_" class="st43" d="M419.7,177.4c7.4,10.6,7.4,10.6,19.2,6.7c-3.2,4.5-7.2,6.2-12.1,4.7
		C422,187.3,420.1,183.4,419.7,177.4z"/>
	<path id="XMLID_176_" class="st44" d="M616.8,305.9c0.9-0.4,0.9-1.2,1-2c2.8,3.7,4.3,8,5.9,12.3
		C620.5,313.3,618.5,309.7,616.8,305.9z"/>
	<path id="XMLID_175_" class="st27" d="M671.7,339c-1.3-1.5-0.8-3.4-0.8-5.1C672.4,335.4,671.7,337.2,671.7,339z"/>
	<path id="XMLID_174_" class="st45" d="M184.7,690c3.3-12,6-24,8.2-36.1c3.8-21.1,7-42.3,8.7-63.7c1.6-20.8,11.2-38.4,22.9-55.2
		c0.8-1.1,1.5-2.2,2.3-3.2c0.7-0.9,0.8-2.3,2.5-2.6c0.7,2.9-1.2,5-2.3,7.1c-5.6,11-12.2,21.4-16.3,33.1c-4.6,12.8-6.5,26-8.2,39.4
		c-3.1,25.3-5,51-14.8,75C186.8,685.9,185.7,687.9,184.7,690z"/>
	<path id="XMLID_173_" class="st46" d="M310.7,642.1c-0.3,3.3,0.8,6.5,1.2,9.8c-0.1,1.1-0.1,2.3-0.2,3.5c-4.1-4.3-14.6-43.9-17-64.9
		C302,607.1,306.4,624.5,310.7,642.1z"/>
	<path id="XMLID_172_" class="st2" d="M598.7,278.9c3.2,26.7,11,52.4,19.2,77.9c0,1.8-0.6,3.1-2.5,3.8c-10.4,3.9-20.8,7.8-31.2,11.7
		c-1.3,0.5-2.5,1.1-3.5-0.4c7.3-21.1,12.2-42.9,14.8-65.1c1-8.5,1.5-17.1,2.3-25.7C597.9,280.3,598.4,279.6,598.7,278.9z"/>
	<path id="XMLID_171_" class="st37" d="M566.7,415.7c3.6-3,5.9-6.5,6.4-11.4c0.5-4.5,1.8-8.9,4-13.8c4.2,14.2-0.3,24.5-11.2,32.4
		c-2.3,1.3-4.7,2.6-7.4,2.3c-0.9-0.1-2.2,0.1-2.5-1.1c-0.3-1.4,1-1.5,1.9-1.7C561.6,421.3,564.4,418.8,566.7,415.7z"/>
	<path id="XMLID_170_" class="st47" d="M568.7,450c6.5,2.2,13,1.5,19.4-0.5c-4.1,5.7-10.3,5.5-16.3,5.5c-6.8-1.9-13.3-4.6-18.8-9.1
		c-1.4-1.1-3.1-2-3.5-3.9c4.7,2.2,9.3,4.5,14.1,6.7C565.1,449.2,566.9,449.5,568.7,450z"/>
	<path id="XMLID_169_" class="st48" d="M567.9,430.1c2.6-1.6,5.2-3.3,8.7-5.5c-2.3,5-6.3,7.1-8.9,10.2c-5.4,2.8-10.7,5.4-17.6-0.5
		C557.7,436.1,563.1,434.2,567.9,430.1z"/>
	<path id="XMLID_168_" class="st49" d="M572.8,462.9c0.8,0.9,1.9,0.9,2.9,0.9c14.9,3.5,28.5-0.2,41.9-8.2
		c-8.8,12.4-29.6,16.9-48.8,11.2c-5.8-3.3-11.8-6.2-16-13.5C559.9,457.7,565.8,461.5,572.8,462.9z"/>
	<path id="XMLID_167_" class="st50" d="M618.3,442.3c8.2-10.4,9.5-22.2,11.8-34.1C635.8,421.4,627.7,440.1,618.3,442.3z"/>
</g>
</svg>
